<svg width="20" height="20" viewBox="0 0 20 20" fill="none" xmlns="http://www.w3.org/2000/svg">
<g clip-path="url(#clip0_1_419)">
<path d="M19.7008 12.419C18.3651 17.7762 12.9385 21.0365 7.58005 19.7006C2.22386 18.365 -1.03679 12.9387 0.299519 7.58197C1.63465 2.22419 7.06123 -1.03634 12.418 0.299234C17.7761 1.63481 21.0365 7.0617 19.7006 12.4191L19.7007 12.419H19.7008Z" fill="#F7931A"/>
<path d="M14.4101 8.57525C14.6091 7.24447 13.5958 6.52912 12.2103 6.05191L12.6598 4.24925L11.5623 3.97582L11.1247 5.73102C10.8362 5.65907 10.5399 5.59128 10.2454 5.52407L10.6862 3.75729L9.58941 3.48386L9.13968 5.28593C8.90092 5.23158 8.66642 5.17786 8.43892 5.12126L8.44019 5.11559L6.92677 4.7377L6.63483 5.90973C6.63483 5.90973 7.44905 6.09635 7.43189 6.10783C7.8763 6.21874 7.95667 6.51289 7.94332 6.74605L7.43131 8.7997C7.46191 8.80747 7.5016 8.81872 7.5454 8.83631C7.50879 8.82722 7.46983 8.8173 7.4294 8.80762L6.71173 11.6845C6.65741 11.8195 6.51956 12.0221 6.20885 11.9452C6.21985 11.9611 5.4112 11.7461 5.4112 11.7461L4.86633 13.0022L6.2945 13.3582C6.56018 13.4248 6.82054 13.4945 7.07694 13.5601L6.6228 15.3834L7.71899 15.6568L8.16873 13.8529C8.4682 13.9342 8.75882 14.0091 9.04332 14.0798L8.5951 15.8753L9.69261 16.1487L10.1467 14.3288C12.0181 14.6829 13.4252 14.5402 14.0175 12.8477C14.4948 11.485 13.9938 10.699 13.0092 10.1865C13.7263 10.0211 14.2664 9.54955 14.4105 8.57539L14.4101 8.57515L14.4101 8.57525ZM11.9026 12.0909C11.5635 13.4536 9.26893 12.717 8.525 12.5323L9.12765 10.1166C9.87153 10.3023 12.2571 10.6698 11.9027 12.0909H11.9026ZM12.242 8.5555C11.9326 9.79498 10.0229 9.16527 9.40336 9.01086L9.94974 6.82005C10.5693 6.97446 12.5643 7.26265 12.2421 8.5555H12.242Z" fill="white"/>
</g>
<defs>
<clipPath id="clip0_1_419">
<rect width="20" height="20" fill="white"/>
</clipPath>
</defs>
</svg>
