<svg width="1122" height="34" viewBox="0 0 1122 34" fill="none" xmlns="http://www.w3.org/2000/svg">
<path d="M1121 0V30" stroke="#EDD777"/>
<rect x="1" width="397.283" height="10" fill="#45E3B8"/>
<rect x="408.848" width="48.49" height="10" fill="#C277ED"/>
<rect x="465.906" width="48.49" height="10" fill="#C277ED"/>
<rect x="522.961" width="48.49" height="10" fill="#C277ED"/>
<rect x="580.02" width="48.49" height="10" fill="#C277ED"/>
<rect x="637" width="47" height="10" fill="#C277ED"/>
<rect x="694.133" width="13.45" height="10" fill="#EDD777"/>
<rect x="712" width="13.45" height="10" fill="#EDD777"/>
<rect x="730" width="13.45" height="10" fill="#EDD777"/>
<rect x="748" width="13.45" height="10" fill="#EDD777"/>
<rect x="766" width="13.45" height="10" fill="#EDD777"/>
<rect x="784" width="13.45" height="10" fill="#EDD777"/>
<rect x="802" width="13.45" height="10" fill="#EDD777"/>
<rect x="820" width="13.45" height="10" fill="#EDD777"/>
<rect x="838" width="13.45" height="10" fill="#EDD777"/>
<rect x="856" width="13.45" height="10" fill="#EDD777"/>
<rect x="874" width="13.45" height="10" fill="#EDD777"/>
<rect x="892" width="13.45" height="10" fill="#EDD777"/>
<rect x="910" width="13.45" height="10" fill="#EDD777"/>
<rect x="928" width="13.45" height="10" fill="#EDD777"/>
<rect x="946" width="13.45" height="10" fill="#EDD777"/>
<rect x="964" width="13.45" height="10" fill="#EDD777"/>
<rect x="982" width="13.45" height="10" fill="#EDD777"/>
<rect x="1000" width="13.45" height="10" fill="#EDD777"/>
<rect x="1018" width="13.45" height="10" fill="#EDD777"/>
<rect x="1036" width="13.45" height="10" fill="#EDD777"/>
<rect x="1054" width="13.45" height="10" fill="#EDD777"/>
<rect x="1072" width="13.45" height="10" fill="#EDD777"/>
<rect x="1090" width="13.45" height="10" fill="#EDD777"/>
<rect x="1108" width="13.45" height="10" fill="#EDD777"/>
<path d="M1 0V30" stroke="#45E3B8"/>
<path d="M684 0V30" stroke="#C277ED"/>
<circle cx="11" cy="24" r="4" fill="#45E3B8"/>
<path d="M19.725 19.9119V18.8182H27.3613V19.9119H24.1596V29H22.9267V19.9119H19.725ZM31.1994 29.1591C30.4636 29.1591 29.8289 28.9967 29.2953 28.6719C28.765 28.3438 28.3556 27.8864 28.0673 27.2997C27.7823 26.7098 27.6397 26.0237 27.6397 25.2415C27.6397 24.4593 27.7823 23.7699 28.0673 23.1733C28.3556 22.5734 28.7567 22.1061 29.2704 21.7713C29.7875 21.4332 30.3907 21.2642 31.0801 21.2642C31.4778 21.2642 31.8706 21.3305 32.2583 21.4631C32.6461 21.5956 32.9991 21.8111 33.3173 22.1094C33.6355 22.4044 33.889 22.7955 34.0779 23.2827C34.2669 23.7699 34.3613 24.3698 34.3613 25.0824V25.5795H28.475V24.5653H33.1681C33.1681 24.1345 33.082 23.75 32.9096 23.4119C32.7406 23.0739 32.4986 22.8071 32.1838 22.6115C31.8722 22.416 31.5043 22.3182 31.0801 22.3182C30.6127 22.3182 30.2084 22.4342 29.867 22.6662C29.5289 22.8949 29.2688 23.1932 29.0865 23.5611C28.9042 23.929 28.813 24.3234 28.813 24.7443V25.4205C28.813 25.9972 28.9125 26.486 29.1113 26.8871C29.3135 27.2848 29.5936 27.5881 29.9515 27.7969C30.3095 28.0024 30.7254 28.1051 31.1994 28.1051C31.5076 28.1051 31.786 28.062 32.0346 27.9759C32.2865 27.8864 32.5036 27.7538 32.6859 27.5781C32.8682 27.3991 33.0091 27.1771 33.1085 26.9119L34.242 27.2301C34.1227 27.6146 33.9222 27.9527 33.6404 28.2443C33.3587 28.5327 33.0107 28.758 32.5964 28.9205C32.1821 29.0795 31.7164 29.1591 31.1994 29.1591ZM39.4672 21.3636V22.358H35.5098V21.3636H39.4672ZM36.6632 19.5341H37.8365V26.8125C37.8365 27.1439 37.8845 27.3925 37.9806 27.5582C38.0801 27.7206 38.206 27.83 38.3585 27.8864C38.5143 27.9394 38.6783 27.9659 38.8507 27.9659C38.9799 27.9659 39.086 27.9593 39.1689 27.946C39.2517 27.9295 39.318 27.9162 39.3677 27.9062L39.6064 28.9602C39.5268 28.9901 39.4158 29.0199 39.2733 29.0497C39.1307 29.0829 38.9501 29.0994 38.7314 29.0994C38.3999 29.0994 38.0751 29.0282 37.7569 28.8857C37.4421 28.7431 37.1802 28.526 36.9714 28.2344C36.7659 27.9427 36.6632 27.5748 36.6632 27.1307V19.5341ZM42.5694 24.4062V29H41.3961V18.8182H42.5694V22.5568H42.6689C42.8478 22.1624 43.1163 21.8492 43.4743 21.6172C43.8355 21.3819 44.3161 21.2642 44.916 21.2642C45.4364 21.2642 45.8921 21.3686 46.2832 21.5774C46.6743 21.7829 46.9776 22.0994 47.193 22.527C47.4118 22.9512 47.5211 23.4915 47.5211 24.1477V29H46.3478V24.2273C46.3478 23.6207 46.1904 23.1518 45.8755 22.8203C45.564 22.4856 45.1315 22.3182 44.5779 22.3182C44.1935 22.3182 43.8488 22.3994 43.5439 22.5618C43.2422 22.7242 43.0036 22.9612 42.8279 23.2727C42.6556 23.5843 42.5694 23.9621 42.5694 24.4062ZM52.8693 29.1591C52.1335 29.1591 51.4988 28.9967 50.9652 28.6719C50.4349 28.3438 50.0256 27.8864 49.7372 27.2997C49.4522 26.7098 49.3097 26.0237 49.3097 25.2415C49.3097 24.4593 49.4522 23.7699 49.7372 23.1733C50.0256 22.5734 50.4266 22.1061 50.9403 21.7713C51.4574 21.4332 52.0606 21.2642 52.75 21.2642C53.1477 21.2642 53.5405 21.3305 53.9283 21.4631C54.3161 21.5956 54.669 21.8111 54.9872 22.1094C55.3054 22.4044 55.5589 22.7955 55.7479 23.2827C55.9368 23.7699 56.0312 24.3698 56.0312 25.0824V25.5795H50.1449V24.5653H54.8381C54.8381 24.1345 54.7519 23.75 54.5795 23.4119C54.4105 23.0739 54.1686 22.8071 53.8537 22.6115C53.5421 22.416 53.1742 22.3182 52.75 22.3182C52.2827 22.3182 51.8783 22.4342 51.5369 22.6662C51.1989 22.8949 50.9387 23.1932 50.7564 23.5611C50.5741 23.929 50.483 24.3234 50.483 24.7443V25.4205C50.483 25.9972 50.5824 26.486 50.7812 26.8871C50.9834 27.2848 51.2635 27.5881 51.6214 27.7969C51.9794 28.0024 52.3954 28.1051 52.8693 28.1051C53.1776 28.1051 53.456 28.062 53.7045 27.9759C53.9564 27.8864 54.1735 27.7538 54.3558 27.5781C54.5381 27.3991 54.679 27.1771 54.7784 26.9119L55.9119 27.2301C55.7926 27.6146 55.5921 27.9527 55.3104 28.2443C55.0286 28.5327 54.6806 28.758 54.2663 28.9205C53.852 29.0795 53.3864 29.1591 52.8693 29.1591ZM57.8161 29V21.3636H58.9496V22.517H59.0291C59.1683 22.1392 59.4202 21.8326 59.7848 21.5973C60.1494 21.362 60.5604 21.2443 61.0178 21.2443C61.1039 21.2443 61.2116 21.246 61.3409 21.2493C61.4702 21.2526 61.5679 21.2576 61.6342 21.2642V22.4574C61.5945 22.4474 61.5033 22.4325 61.3608 22.4126C61.2216 22.3894 61.0741 22.3778 60.9183 22.3778C60.5471 22.3778 60.2157 22.4557 59.924 22.6115C59.6357 22.764 59.407 22.9761 59.2379 23.2479C59.0722 23.5163 58.9893 23.8229 58.9893 24.1676V29H57.8161Z" fill="white"/>
<path d="M70.2878 28.1193C69.7253 28.1193 69.2239 28.0227 68.7836 27.8295C68.3461 27.6364 67.998 27.3679 67.7395 27.0241C67.4838 26.6776 67.3446 26.2756 67.3219 25.8182H68.3958C68.4185 26.0994 68.5151 26.3423 68.6855 26.5469C68.856 26.7486 69.079 26.9048 69.3546 27.0156C69.6301 27.1264 69.9355 27.1818 70.2708 27.1818C70.6458 27.1818 70.9782 27.1165 71.2679 26.9858C71.5577 26.8551 71.785 26.6733 71.9498 26.4403C72.1145 26.2074 72.1969 25.9375 72.1969 25.6307C72.1969 25.3097 72.1174 25.027 71.9583 24.7827C71.7992 24.5355 71.5662 24.3423 71.2594 24.2031C70.9526 24.0639 70.5776 23.9943 70.1344 23.9943H69.4355V23.0568H70.1344C70.481 23.0568 70.785 22.9943 71.0463 22.8693C71.3105 22.7443 71.5165 22.5682 71.6642 22.3409C71.8148 22.1136 71.8901 21.8466 71.8901 21.5398C71.8901 21.2443 71.8248 20.9872 71.6941 20.7685C71.5634 20.5497 71.3787 20.3793 71.1401 20.2571C70.9043 20.1349 70.6259 20.0739 70.3049 20.0739C70.0037 20.0739 69.7196 20.1293 69.4526 20.2401C69.1884 20.348 68.9725 20.5057 68.8049 20.7131C68.6373 20.9176 68.5463 21.1648 68.5321 21.4545H67.5094C67.5265 20.9972 67.6642 20.5966 67.9228 20.2528C68.1813 19.9062 68.5194 19.6364 68.937 19.4432C69.3574 19.25 69.8191 19.1534 70.3219 19.1534C70.8617 19.1534 71.3248 19.2628 71.7111 19.4815C72.0975 19.6974 72.3944 19.983 72.6017 20.3381C72.8091 20.6932 72.9128 21.0767 72.9128 21.4886C72.9128 21.9801 72.7836 22.3991 72.525 22.7457C72.2694 23.0923 71.9213 23.3324 71.481 23.4659V23.5341C72.0321 23.625 72.4625 23.8594 72.7722 24.2372C73.0819 24.6122 73.2367 25.0767 73.2367 25.6307C73.2367 26.1051 73.1074 26.5312 72.8489 26.9091C72.5932 27.2841 72.2438 27.5795 71.8006 27.7955C71.3574 28.0114 70.8532 28.1193 70.2878 28.1193ZM77.7069 28.1193C77.2069 28.1193 76.7566 28.0199 76.356 27.821C75.9554 27.6222 75.6344 27.3494 75.3929 27.0028C75.1515 26.6562 75.0194 26.2614 74.9966 25.8182H76.0194C76.0591 26.2131 76.2381 26.5398 76.5563 26.7983C76.8773 27.054 77.2608 27.1818 77.7069 27.1818C78.0648 27.1818 78.383 27.098 78.6614 26.9304C78.9426 26.7628 79.1628 26.5327 79.3219 26.2401C79.4838 25.9446 79.5648 25.6108 79.5648 25.2386C79.5648 24.858 79.481 24.5185 79.3134 24.2202C79.1486 23.919 78.9213 23.6818 78.6316 23.5085C78.3418 23.3352 78.0108 23.2472 77.6387 23.2443C77.3716 23.2415 77.0975 23.2827 76.8162 23.3679C76.535 23.4503 76.3034 23.5568 76.1216 23.6875L75.133 23.5682L75.6614 19.2727H80.1955V20.2102H76.5478L76.2409 22.7841H76.2921C76.4711 22.642 76.6955 22.5241 76.9654 22.4304C77.2353 22.3366 77.5165 22.2898 77.8091 22.2898C78.3432 22.2898 78.8191 22.4176 79.2367 22.6733C79.6571 22.9261 79.9867 23.2727 80.2253 23.7131C80.4668 24.1534 80.5875 24.6562 80.5875 25.2216C80.5875 25.7784 80.4625 26.2756 80.2125 26.7131C79.9654 27.1477 79.6245 27.4915 79.1898 27.7443C78.7551 27.9943 78.2608 28.1193 77.7069 28.1193ZM82.7022 28.0682C82.492 28.0682 82.3116 27.9929 82.161 27.8423C82.0105 27.6918 81.9352 27.5114 81.9352 27.3011C81.9352 27.0909 82.0105 26.9105 82.161 26.7599C82.3116 26.6094 82.492 26.5341 82.7022 26.5341C82.9125 26.5341 83.0929 26.6094 83.2434 26.7599C83.394 26.9105 83.4693 27.0909 83.4693 27.3011C83.4693 27.4403 83.4338 27.5682 83.3627 27.6847C83.2946 27.8011 83.2022 27.8949 83.0858 27.9659C82.9721 28.0341 82.8443 28.0682 82.7022 28.0682ZM87.7988 28.1193C87.1568 28.1193 86.6099 27.9446 86.1582 27.5952C85.7065 27.2429 85.3613 26.733 85.1227 26.0653C84.8841 25.3949 84.7647 24.5852 84.7647 23.6364C84.7647 22.6932 84.8841 21.8878 85.1227 21.2202C85.3642 20.5497 85.7108 20.0384 86.1625 19.6861C86.617 19.331 87.1625 19.1534 87.7988 19.1534C88.4352 19.1534 88.9792 19.331 89.4309 19.6861C89.8855 20.0384 90.2321 20.5497 90.4707 21.2202C90.7122 21.8878 90.8329 22.6932 90.8329 23.6364C90.8329 24.5852 90.7136 25.3949 90.475 26.0653C90.2363 26.733 89.8912 27.2429 89.4395 27.5952C88.9877 27.9446 88.4409 28.1193 87.7988 28.1193ZM87.7988 27.1818C88.4352 27.1818 88.9295 26.875 89.2818 26.2614C89.6341 25.6477 89.8102 24.7727 89.8102 23.6364C89.8102 22.8807 89.7292 22.2372 89.5673 21.706C89.4082 21.1747 89.1781 20.7699 88.877 20.4915C88.5787 20.2131 88.2193 20.0739 87.7988 20.0739C87.1681 20.0739 86.6752 20.3849 86.3201 21.0071C85.965 21.6264 85.7875 22.5028 85.7875 23.6364C85.7875 24.392 85.867 25.0341 86.0261 25.5625C86.1852 26.0909 86.4139 26.4929 86.7122 26.7685C87.0133 27.044 87.3755 27.1818 87.7988 27.1818ZM92.4522 28V27.233L95.3329 24.0795C95.671 23.7102 95.9494 23.3892 96.1681 23.1165C96.3869 22.8409 96.5488 22.5824 96.6539 22.3409C96.7619 22.0966 96.8159 21.8409 96.8159 21.5739C96.8159 21.267 96.742 21.0014 96.5943 20.777C96.4494 20.5526 96.2505 20.3793 95.9977 20.2571C95.7449 20.1349 95.4608 20.0739 95.1454 20.0739C94.8102 20.0739 94.5176 20.1435 94.2676 20.2827C94.0204 20.419 93.8287 20.6108 93.6923 20.858C93.5588 21.1051 93.492 21.3949 93.492 21.7273H92.4863C92.4863 21.2159 92.6042 20.767 92.84 20.3807C93.0758 19.9943 93.3968 19.6932 93.8031 19.4773C94.2122 19.2614 94.671 19.1534 95.1795 19.1534C95.6909 19.1534 96.144 19.2614 96.5389 19.4773C96.9338 19.6932 97.2434 19.9844 97.4679 20.3509C97.6923 20.7173 97.8045 21.125 97.8045 21.5739C97.8045 21.8949 97.7463 22.2088 97.6298 22.5156C97.5162 22.8196 97.3173 23.1591 97.0332 23.5341C96.752 23.9062 96.3613 24.3608 95.8613 24.8977L93.9011 26.9943V27.0625H97.9579V28H92.4522ZM104.167 26.3636V25.9034C104.167 25.5852 104.232 25.294 104.363 25.0298C104.496 24.7628 104.689 24.5497 104.942 24.3906C105.198 24.2287 105.508 24.1477 105.871 24.1477C106.241 24.1477 106.55 24.2287 106.8 24.3906C107.05 24.5497 107.239 24.7628 107.367 25.0298C107.495 25.294 107.559 25.5852 107.559 25.9034V26.3636C107.559 26.6818 107.493 26.9744 107.363 27.2415C107.235 27.5057 107.045 27.7187 106.792 27.8807C106.542 28.0398 106.235 28.1193 105.871 28.1193C105.502 28.1193 105.191 28.0398 104.938 27.8807C104.685 27.7187 104.493 27.5057 104.363 27.2415C104.232 26.9744 104.167 26.6818 104.167 26.3636ZM105.036 25.9034V26.3636C105.036 26.6278 105.099 26.8651 105.224 27.0753C105.349 27.2827 105.564 27.3864 105.871 27.3864C106.17 27.3864 106.38 27.2827 106.502 27.0753C106.627 26.8651 106.689 26.6278 106.689 26.3636V25.9034C106.689 25.6392 106.63 25.4034 106.51 25.196C106.391 24.9858 106.178 24.8807 105.871 24.8807C105.573 24.8807 105.358 24.9858 105.228 25.196C105.1 25.4034 105.036 25.6392 105.036 25.9034ZM99.8201 21.3693V20.9091C99.8201 20.5909 99.8855 20.2997 100.016 20.0355C100.15 19.7685 100.343 19.5554 100.596 19.3963C100.851 19.2344 101.161 19.1534 101.525 19.1534C101.894 19.1534 102.204 19.2344 102.454 19.3963C102.704 19.5554 102.893 19.7685 103.02 20.0355C103.148 20.2997 103.212 20.5909 103.212 20.9091V21.3693C103.212 21.6875 103.147 21.9801 103.016 22.2472C102.888 22.5114 102.698 22.7244 102.445 22.8864C102.195 23.0455 101.888 23.125 101.525 23.125C101.155 23.125 100.844 23.0455 100.591 22.8864C100.339 22.7244 100.147 22.5114 100.016 22.2472C99.8855 21.9801 99.8201 21.6875 99.8201 21.3693ZM100.689 20.9091V21.3693C100.689 21.6335 100.752 21.8707 100.877 22.081C101.002 22.2884 101.218 22.392 101.525 22.392C101.823 22.392 102.033 22.2884 102.155 22.081C102.28 21.8707 102.343 21.6335 102.343 21.3693V20.9091C102.343 20.6449 102.283 20.4091 102.164 20.2017C102.045 19.9915 101.831 19.8864 101.525 19.8864C101.226 19.8864 101.012 19.9915 100.881 20.2017C100.753 20.4091 100.689 20.6449 100.689 20.9091ZM100.144 28L106.144 19.2727H107.116L101.116 28H100.144Z" fill="#A1A1A1"/>
<circle cx="567" cy="24" r="4" fill="#C277ED"/>
<path d="M581.986 21.3636C581.926 20.8598 581.684 20.4688 581.26 20.1903C580.836 19.9119 580.315 19.7727 579.699 19.7727C579.248 19.7727 578.854 19.8456 578.516 19.9915C578.181 20.1373 577.919 20.3378 577.73 20.593C577.544 20.8482 577.452 21.1383 577.452 21.4631C577.452 21.7348 577.516 21.9685 577.646 22.1641C577.778 22.3563 577.947 22.517 578.153 22.6463C578.358 22.7723 578.574 22.8767 578.799 22.9595C579.024 23.0391 579.231 23.1037 579.42 23.1534L580.454 23.4318C580.72 23.5014 581.015 23.5975 581.339 23.7202C581.668 23.8428 581.981 24.0102 582.279 24.2223C582.581 24.4311 582.829 24.6996 583.025 25.0277C583.22 25.3558 583.318 25.7585 583.318 26.2358C583.318 26.786 583.174 27.2831 582.886 27.7273C582.601 28.1714 582.183 28.5244 581.633 28.7862C581.086 29.0481 580.421 29.179 579.639 29.179C578.91 29.179 578.279 29.0613 577.745 28.826C577.215 28.5907 576.797 28.2625 576.492 27.8416C576.19 27.4207 576.02 26.9318 575.98 26.375H577.253C577.286 26.7595 577.415 27.0777 577.641 27.3295C577.869 27.5781 578.158 27.7637 578.506 27.8864C578.857 28.0057 579.235 28.0653 579.639 28.0653C580.11 28.0653 580.532 27.9891 580.907 27.8366C581.281 27.6809 581.578 27.4654 581.797 27.1903C582.016 26.9119 582.125 26.5871 582.125 26.2159C582.125 25.8778 582.03 25.6027 581.842 25.3906C581.653 25.1785 581.404 25.0062 581.096 24.8736C580.788 24.741 580.454 24.625 580.097 24.5256L578.844 24.1676C578.048 23.9389 577.418 23.6125 576.954 23.1882C576.49 22.764 576.258 22.2088 576.258 21.5227C576.258 20.9527 576.413 20.4555 576.721 20.0312C577.032 19.6037 577.45 19.2723 577.974 19.0369C578.501 18.7983 579.089 18.679 579.739 18.679C580.395 18.679 580.978 18.7966 581.489 19.032C581.999 19.264 582.403 19.5821 582.702 19.9865C583.003 20.3909 583.162 20.8499 583.179 21.3636H581.986ZM589.999 25.8778V21.3636H591.172V29H589.999V27.7074H589.919C589.74 28.0952 589.462 28.425 589.084 28.6967C588.706 28.9652 588.229 29.0994 587.652 29.0994C587.175 29.0994 586.751 28.995 586.379 28.7862C586.008 28.5741 585.716 28.2559 585.504 27.8317C585.292 27.4041 585.186 26.8655 585.186 26.2159V21.3636H586.359V26.1364C586.359 26.6932 586.515 27.1373 586.827 27.4688C587.142 27.8002 587.543 27.9659 588.03 27.9659C588.322 27.9659 588.618 27.8913 588.92 27.7422C589.225 27.593 589.48 27.3643 589.685 27.0561C589.894 26.7479 589.999 26.3551 589.999 25.8778ZM598.73 23.0739L597.676 23.3722C597.61 23.1965 597.512 23.0258 597.383 22.8601C597.257 22.6911 597.084 22.5518 596.866 22.4425C596.647 22.3331 596.367 22.2784 596.025 22.2784C595.558 22.2784 595.169 22.3861 594.857 22.6016C594.549 22.8137 594.395 23.0838 594.395 23.4119C594.395 23.7036 594.501 23.9339 594.713 24.103C594.925 24.272 595.257 24.4129 595.707 24.5256L596.841 24.804C597.524 24.9697 598.032 25.2232 598.367 25.5646C598.702 25.9027 598.869 26.3385 598.869 26.8722C598.869 27.3097 598.743 27.7008 598.491 28.0455C598.243 28.3902 597.895 28.6619 597.447 28.8608C597 29.0597 596.48 29.1591 595.886 29.1591C595.107 29.1591 594.463 28.9901 593.952 28.652C593.442 28.3139 593.119 27.8201 592.983 27.1705L594.097 26.892C594.203 27.303 594.403 27.6113 594.698 27.8168C594.996 28.0223 595.386 28.125 595.866 28.125C596.413 28.125 596.847 28.009 597.169 27.777C597.494 27.5417 597.656 27.2599 597.656 26.9318C597.656 26.6667 597.563 26.4446 597.378 26.2656C597.192 26.0833 596.907 25.9474 596.523 25.858L595.25 25.5597C594.551 25.3939 594.037 25.1371 593.709 24.7891C593.384 24.4377 593.222 23.9986 593.222 23.4716C593.222 23.0407 593.342 22.6596 593.584 22.3281C593.83 21.9967 594.163 21.7365 594.584 21.5476C595.008 21.3587 595.489 21.2642 596.025 21.2642C596.781 21.2642 597.374 21.4299 597.805 21.7614C598.239 22.0928 598.548 22.5303 598.73 23.0739ZM601.809 24.4062V29H600.635V18.8182H601.809V22.5568H601.908C602.087 22.1624 602.356 21.8492 602.714 21.6172C603.075 21.3819 603.555 21.2642 604.155 21.2642C604.676 21.2642 605.131 21.3686 605.522 21.5774C605.914 21.7829 606.217 22.0994 606.432 22.527C606.651 22.9512 606.76 23.4915 606.76 24.1477V29H605.587V24.2273C605.587 23.6207 605.43 23.1518 605.115 22.8203C604.803 22.4856 604.371 22.3182 603.817 22.3182C603.433 22.3182 603.088 22.3994 602.783 22.5618C602.482 22.7242 602.243 22.9612 602.067 23.2727C601.895 23.5843 601.809 23.9621 601.809 24.4062ZM608.907 29V21.3636H610.08V29H608.907ZM609.503 20.0909C609.275 20.0909 609.078 20.013 608.912 19.8572C608.749 19.7015 608.668 19.5142 608.668 19.2955C608.668 19.0767 608.749 18.8894 608.912 18.7337C609.078 18.5779 609.275 18.5 609.503 18.5C609.732 18.5 609.928 18.5779 610.09 18.7337C610.256 18.8894 610.339 19.0767 610.339 19.2955C610.339 19.5142 610.256 19.7015 610.09 19.8572C609.928 20.013 609.732 20.0909 609.503 20.0909ZM621.894 21.3636C621.834 20.8598 621.592 20.4688 621.168 20.1903C620.744 19.9119 620.223 19.7727 619.607 19.7727C619.156 19.7727 618.762 19.8456 618.424 19.9915C618.089 20.1373 617.827 20.3378 617.638 20.593C617.453 20.8482 617.36 21.1383 617.36 21.4631C617.36 21.7348 617.424 21.9685 617.554 22.1641C617.686 22.3563 617.855 22.517 618.061 22.6463C618.266 22.7723 618.482 22.8767 618.707 22.9595C618.932 23.0391 619.14 23.1037 619.329 23.1534L620.363 23.4318C620.628 23.5014 620.923 23.5975 621.248 23.7202C621.576 23.8428 621.889 24.0102 622.187 24.2223C622.489 24.4311 622.737 24.6996 622.933 25.0277C623.129 25.3558 623.226 25.7585 623.226 26.2358C623.226 26.786 623.082 27.2831 622.794 27.7273C622.509 28.1714 622.091 28.5244 621.541 28.7862C620.994 29.0481 620.33 29.179 619.547 29.179C618.818 29.179 618.187 29.0613 617.653 28.826C617.123 28.5907 616.705 28.2625 616.4 27.8416C616.099 27.4207 615.928 26.9318 615.888 26.375H617.161C617.194 26.7595 617.323 27.0777 617.549 27.3295C617.777 27.5781 618.066 27.7637 618.414 27.8864C618.765 28.0057 619.143 28.0653 619.547 28.0653C620.018 28.0653 620.441 27.9891 620.815 27.8366C621.19 27.6809 621.486 27.4654 621.705 27.1903C621.924 26.9119 622.033 26.5871 622.033 26.2159C622.033 25.8778 621.939 25.6027 621.75 25.3906C621.561 25.1785 621.312 25.0062 621.004 24.8736C620.696 24.741 620.363 24.625 620.005 24.5256L618.752 24.1676C617.956 23.9389 617.327 23.6125 616.863 23.1882C616.399 22.764 616.167 22.2088 616.167 21.5227C616.167 20.9527 616.321 20.4555 616.629 20.0312C616.941 19.6037 617.358 19.2723 617.882 19.0369C618.409 18.7983 618.997 18.679 619.647 18.679C620.303 18.679 620.886 18.7966 621.397 19.032C621.907 19.264 622.312 19.5821 622.61 19.9865C622.911 20.3909 623.071 20.8499 623.087 21.3636H621.894ZM626.824 29L624.498 21.3636H625.731L627.381 27.2102H627.461L629.092 21.3636H630.344L631.955 27.1903H632.035L633.685 21.3636H634.918L632.592 29H631.438L629.768 23.1335H629.648L627.978 29H626.824ZM638.717 29.179C638.233 29.179 637.793 29.0878 637.399 28.9055C637.005 28.7199 636.691 28.4531 636.459 28.1051C636.227 27.7538 636.111 27.3295 636.111 26.8324C636.111 26.3949 636.198 26.0402 636.37 25.7685C636.542 25.4934 636.773 25.2779 637.061 25.1222C637.349 24.9664 637.668 24.8504 638.016 24.7741C638.367 24.6946 638.72 24.6316 639.074 24.5852C639.539 24.5256 639.915 24.4808 640.203 24.451C640.495 24.4179 640.707 24.3632 640.839 24.2869C640.975 24.2107 641.043 24.0781 641.043 23.8892V23.8494C641.043 23.3589 640.909 22.9777 640.641 22.706C640.375 22.4342 639.973 22.2983 639.432 22.2983C638.872 22.2983 638.433 22.4209 638.115 22.6662C637.797 22.9115 637.573 23.1733 637.444 23.4517L636.33 23.054C636.529 22.59 636.794 22.2287 637.126 21.9702C637.46 21.7083 637.825 21.526 638.219 21.4233C638.617 21.3172 639.008 21.2642 639.393 21.2642C639.638 21.2642 639.92 21.294 640.238 21.3537C640.559 21.41 640.869 21.5277 641.168 21.7067C641.469 21.8857 641.719 22.1558 641.918 22.517C642.117 22.8783 642.217 23.3622 642.217 23.9688V29H641.043V27.9659H640.984C640.904 28.1316 640.771 28.3089 640.586 28.4979C640.4 28.6868 640.153 28.8475 639.845 28.9801C639.537 29.1127 639.161 29.179 638.717 29.179ZM638.896 28.125C639.36 28.125 639.751 28.0339 640.069 27.8516C640.39 27.6693 640.632 27.4339 640.795 27.1456C640.96 26.8572 641.043 26.554 641.043 26.2358V25.1619C640.994 25.2216 640.884 25.2763 640.715 25.326C640.549 25.3724 640.357 25.4138 640.138 25.4503C639.923 25.4834 639.713 25.5133 639.507 25.5398C639.305 25.563 639.141 25.5829 639.015 25.5994C638.71 25.6392 638.425 25.7038 638.16 25.7933C637.898 25.8795 637.686 26.0104 637.523 26.1861C637.364 26.3584 637.285 26.5937 637.285 26.892C637.285 27.2997 637.436 27.608 637.737 27.8168C638.042 28.0223 638.428 28.125 638.896 28.125ZM644.358 31.8636V21.3636H645.492V22.5767H645.631C645.717 22.4441 645.836 22.2751 645.989 22.0696C646.145 21.8608 646.367 21.6752 646.655 21.5128C646.947 21.3471 647.341 21.2642 647.838 21.2642C648.481 21.2642 649.048 21.425 649.538 21.7464C650.029 22.0679 650.412 22.5237 650.687 23.1136C650.962 23.7036 651.1 24.3996 651.1 25.2017C651.1 26.0104 650.962 26.7114 650.687 27.3047C650.412 27.8946 650.031 28.352 649.543 28.6768C649.056 28.9983 648.494 29.1591 647.858 29.1591C647.368 29.1591 646.975 29.0779 646.68 28.9155C646.385 28.7498 646.158 28.5625 645.999 28.3537C645.84 28.1416 645.717 27.9659 645.631 27.8267H645.531V31.8636H644.358ZM645.511 25.1818C645.511 25.7585 645.596 26.2673 645.765 26.7081C645.934 27.1456 646.181 27.4886 646.506 27.7372C646.831 27.9825 647.228 28.1051 647.699 28.1051C648.189 28.1051 648.599 27.9759 648.927 27.7173C649.258 27.4555 649.507 27.1042 649.673 26.6634C649.842 26.2192 649.926 25.7254 649.926 25.1818C649.926 24.6449 649.843 24.161 649.678 23.7301C649.515 23.2959 649.268 22.9529 648.937 22.701C648.609 22.4458 648.196 22.3182 647.699 22.3182C647.222 22.3182 646.821 22.4392 646.496 22.6811C646.171 22.9197 645.926 23.2545 645.76 23.6854C645.594 24.1129 645.511 24.6117 645.511 25.1818Z" fill="white"/>
<path d="M657.146 28V27.233L660.026 24.0795C660.364 23.7102 660.643 23.3892 660.862 23.1165C661.08 22.8409 661.242 22.5824 661.347 22.3409C661.455 22.0966 661.509 21.8409 661.509 21.5739C661.509 21.267 661.435 21.0014 661.288 20.777C661.143 20.5526 660.944 20.3793 660.691 20.2571C660.438 20.1349 660.154 20.0739 659.839 20.0739C659.504 20.0739 659.211 20.1435 658.961 20.2827C658.714 20.419 658.522 20.6108 658.386 20.858C658.252 21.1051 658.185 21.3949 658.185 21.7273H657.18C657.18 21.2159 657.298 20.767 657.533 20.3807C657.769 19.9943 658.09 19.6932 658.496 19.4773C658.906 19.2614 659.364 19.1534 659.873 19.1534C660.384 19.1534 660.837 19.2614 661.232 19.4773C661.627 19.6932 661.937 19.9844 662.161 20.3509C662.386 20.7173 662.498 21.125 662.498 21.5739C662.498 21.8949 662.44 22.2088 662.323 22.5156C662.21 22.8196 662.011 23.1591 661.727 23.5341C661.445 23.9062 661.055 24.3608 660.555 24.8977L658.594 26.9943V27.0625H662.651V28H657.146ZM667.258 28.1193C666.616 28.1193 666.069 27.9446 665.617 27.5952C665.165 27.2429 664.82 26.733 664.582 26.0653C664.343 25.3949 664.224 24.5852 664.224 23.6364C664.224 22.6932 664.343 21.8878 664.582 21.2202C664.823 20.5497 665.17 20.0384 665.621 19.6861C666.076 19.331 666.621 19.1534 667.258 19.1534C667.894 19.1534 668.438 19.331 668.89 19.6861C669.344 20.0384 669.691 20.5497 669.93 21.2202C670.171 21.8878 670.292 22.6932 670.292 23.6364C670.292 24.5852 670.173 25.3949 669.934 26.0653C669.695 26.733 669.35 27.2429 668.898 27.5952C668.447 27.9446 667.9 28.1193 667.258 28.1193ZM667.258 27.1818C667.894 27.1818 668.388 26.875 668.741 26.2614C669.093 25.6477 669.269 24.7727 669.269 23.6364C669.269 22.8807 669.188 22.2372 669.026 21.706C668.867 21.1747 668.637 20.7699 668.336 20.4915C668.038 20.2131 667.678 20.0739 667.258 20.0739C666.627 20.0739 666.134 20.3849 665.779 21.0071C665.424 21.6264 665.246 22.5028 665.246 23.6364C665.246 24.392 665.326 25.0341 665.485 25.5625C665.644 26.0909 665.873 26.4929 666.171 26.7685C666.472 27.044 666.835 27.1818 667.258 27.1818ZM676.36 26.3636V25.9034C676.36 25.5852 676.425 25.294 676.556 25.0298C676.69 24.7628 676.883 24.5497 677.136 24.3906C677.391 24.2287 677.701 24.1477 678.065 24.1477C678.434 24.1477 678.744 24.2287 678.994 24.3906C679.244 24.5497 679.433 24.7628 679.56 25.0298C679.688 25.294 679.752 25.5852 679.752 25.9034V26.3636C679.752 26.6818 679.687 26.9744 679.556 27.2415C679.428 27.5057 679.238 27.7187 678.985 27.8807C678.735 28.0398 678.428 28.1193 678.065 28.1193C677.695 28.1193 677.384 28.0398 677.131 27.8807C676.879 27.7187 676.687 27.5057 676.556 27.2415C676.425 26.9744 676.36 26.6818 676.36 26.3636ZM677.229 25.9034V26.3636C677.229 26.6278 677.292 26.8651 677.417 27.0753C677.542 27.2827 677.758 27.3864 678.065 27.3864C678.363 27.3864 678.573 27.2827 678.695 27.0753C678.82 26.8651 678.883 26.6278 678.883 26.3636V25.9034C678.883 25.6392 678.823 25.4034 678.704 25.196C678.585 24.9858 678.371 24.8807 678.065 24.8807C677.766 24.8807 677.552 24.9858 677.421 25.196C677.293 25.4034 677.229 25.6392 677.229 25.9034ZM672.013 21.3693V20.9091C672.013 20.5909 672.079 20.2997 672.21 20.0355C672.343 19.7685 672.536 19.5554 672.789 19.3963C673.045 19.2344 673.354 19.1534 673.718 19.1534C674.087 19.1534 674.397 19.2344 674.647 19.3963C674.897 19.5554 675.086 19.7685 675.214 20.0355C675.342 20.2997 675.406 20.5909 675.406 20.9091V21.3693C675.406 21.6875 675.34 21.9801 675.21 22.2472C675.082 22.5114 674.891 22.7244 674.638 22.8864C674.388 23.0455 674.082 23.125 673.718 23.125C673.349 23.125 673.038 23.0455 672.785 22.8864C672.532 22.7244 672.34 22.5114 672.21 22.2472C672.079 21.9801 672.013 21.6875 672.013 21.3693ZM672.883 20.9091V21.3693C672.883 21.6335 672.945 21.8707 673.07 22.081C673.195 22.2884 673.411 22.392 673.718 22.392C674.016 22.392 674.227 22.2884 674.349 22.081C674.474 21.8707 674.536 21.6335 674.536 21.3693V20.9091C674.536 20.6449 674.477 20.4091 674.357 20.2017C674.238 19.9915 674.025 19.8864 673.718 19.8864C673.42 19.8864 673.205 19.9915 673.075 20.2017C672.947 20.4091 672.883 20.6449 672.883 20.9091ZM672.337 28L678.337 19.2727H679.309L673.309 28H672.337Z" fill="#A1A1A1"/>
<circle cx="1018" cy="24" r="4" fill="#EDD777"/>
<path d="M1027.67 29V18.8182H1031.23C1031.94 18.8182 1032.53 18.9408 1032.99 19.1861C1033.45 19.428 1033.79 19.7545 1034.02 20.1655C1034.24 20.5732 1034.36 21.0256 1034.36 21.5227C1034.36 21.9602 1034.28 22.3215 1034.12 22.6065C1033.97 22.8916 1033.77 23.117 1033.52 23.2827C1033.27 23.4484 1033 23.571 1032.71 23.6506V23.75C1033.02 23.7699 1033.33 23.8793 1033.65 24.0781C1033.96 24.277 1034.22 24.562 1034.44 24.9332C1034.65 25.3045 1034.75 25.7585 1034.75 26.2955C1034.75 26.8059 1034.64 27.2649 1034.41 27.6726C1034.17 28.0803 1033.81 28.4034 1033.31 28.642C1032.81 28.8807 1032.16 29 1031.35 29H1027.67ZM1028.91 27.9062H1031.35C1032.16 27.9062 1032.73 27.7505 1033.07 27.4389C1033.41 27.1241 1033.58 26.7429 1033.58 26.2955C1033.58 25.9508 1033.49 25.6326 1033.32 25.3409C1033.14 25.0459 1032.89 24.8106 1032.57 24.6349C1032.24 24.456 1031.86 24.3665 1031.41 24.3665H1028.91V27.9062ZM1028.91 23.2926H1031.19C1031.57 23.2926 1031.9 23.2197 1032.2 23.0739C1032.5 22.928 1032.74 22.7225 1032.91 22.4574C1033.09 22.1922 1033.18 21.8807 1033.18 21.5227C1033.18 21.0753 1033.03 20.6958 1032.72 20.3842C1032.4 20.0694 1031.91 19.9119 1031.23 19.9119H1028.91V23.2926ZM1036.62 29V21.3636H1037.79V29H1036.62ZM1037.22 20.0909C1036.99 20.0909 1036.79 20.013 1036.63 19.8572C1036.46 19.7015 1036.38 19.5142 1036.38 19.2955C1036.38 19.0767 1036.46 18.8894 1036.63 18.7337C1036.79 18.5779 1036.99 18.5 1037.22 18.5C1037.45 18.5 1037.64 18.5779 1037.8 18.7337C1037.97 18.8894 1038.05 19.0767 1038.05 19.2955C1038.05 19.5142 1037.97 19.7015 1037.8 19.8572C1037.64 20.013 1037.45 20.0909 1037.22 20.0909ZM1043.26 21.3636V22.358H1039.31V21.3636H1043.26ZM1040.46 19.5341H1041.63V26.8125C1041.63 27.1439 1041.68 27.3925 1041.78 27.5582C1041.88 27.7206 1042 27.83 1042.16 27.8864C1042.31 27.9394 1042.48 27.9659 1042.65 27.9659C1042.78 27.9659 1042.88 27.9593 1042.97 27.946C1043.05 27.9295 1043.11 27.9162 1043.16 27.9062L1043.4 28.9602C1043.32 28.9901 1043.21 29.0199 1043.07 29.0497C1042.93 29.0829 1042.75 29.0994 1042.53 29.0994C1042.2 29.0994 1041.87 29.0282 1041.55 28.8857C1041.24 28.7431 1040.98 28.526 1040.77 28.2344C1040.56 27.9427 1040.46 27.5748 1040.46 27.1307V19.5341ZM1048.05 29.1591C1047.33 29.1591 1046.72 28.9901 1046.2 28.652C1045.68 28.3139 1045.28 27.8482 1045.01 27.255C1044.73 26.6617 1044.59 25.9839 1044.59 25.2216C1044.59 24.446 1044.73 23.7616 1045.02 23.1683C1045.3 22.5717 1045.71 22.1061 1046.22 21.7713C1046.74 21.4332 1047.34 21.2642 1048.03 21.2642C1048.57 21.2642 1049.05 21.3636 1049.48 21.5625C1049.91 21.7614 1050.26 22.0398 1050.54 22.3977C1050.82 22.7557 1050.99 23.1733 1051.05 23.6506H1049.88C1049.79 23.3026 1049.59 22.9943 1049.28 22.7259C1048.98 22.4541 1048.57 22.3182 1048.05 22.3182C1047.59 22.3182 1047.19 22.4375 1046.85 22.6761C1046.5 22.9115 1046.24 23.2446 1046.05 23.6754C1045.86 24.103 1045.76 24.6051 1045.76 25.1818C1045.76 25.7718 1045.86 26.2855 1046.04 26.723C1046.23 27.1605 1046.49 27.5002 1046.84 27.7422C1047.18 27.9841 1047.59 28.1051 1048.05 28.1051C1048.35 28.1051 1048.63 28.0521 1048.88 27.946C1049.13 27.84 1049.34 27.6875 1049.51 27.4886C1049.68 27.2898 1049.81 27.0511 1049.88 26.7727H1051.05C1050.99 27.2235 1050.82 27.6295 1050.56 27.9908C1050.3 28.3487 1049.96 28.6338 1049.53 28.8459C1049.11 29.0547 1048.61 29.1591 1048.05 29.1591ZM1055.87 29.1591C1055.18 29.1591 1054.58 28.995 1054.05 28.6669C1053.54 28.3388 1053.13 27.8797 1052.84 27.2898C1052.55 26.6998 1052.41 26.0104 1052.41 25.2216C1052.41 24.4261 1052.55 23.7318 1052.84 23.1385C1053.13 22.5452 1053.54 22.0845 1054.05 21.7564C1054.58 21.4283 1055.18 21.2642 1055.87 21.2642C1056.56 21.2642 1057.16 21.4283 1057.68 21.7564C1058.2 22.0845 1058.6 22.5452 1058.89 23.1385C1059.18 23.7318 1059.33 24.4261 1059.33 25.2216C1059.33 26.0104 1059.18 26.6998 1058.89 27.2898C1058.6 27.8797 1058.2 28.3388 1057.68 28.6669C1057.16 28.995 1056.56 29.1591 1055.87 29.1591ZM1055.87 28.1051C1056.39 28.1051 1056.82 27.9709 1057.16 27.7024C1057.5 27.4339 1057.75 27.081 1057.91 26.6435C1058.08 26.206 1058.16 25.732 1058.16 25.2216C1058.16 24.7112 1058.08 24.2356 1057.91 23.7947C1057.75 23.3539 1057.5 22.9976 1057.16 22.7259C1056.82 22.4541 1056.39 22.3182 1055.87 22.3182C1055.35 22.3182 1054.91 22.4541 1054.58 22.7259C1054.24 22.9976 1053.99 23.3539 1053.83 23.7947C1053.66 24.2356 1053.58 24.7112 1053.58 25.2216C1053.58 25.732 1053.66 26.206 1053.83 26.6435C1053.99 27.081 1054.24 27.4339 1054.58 27.7024C1054.91 27.9709 1055.35 28.1051 1055.87 28.1051ZM1061.12 29V21.3636H1062.29V29H1061.12ZM1061.72 20.0909C1061.49 20.0909 1061.29 20.013 1061.13 19.8572C1060.96 19.7015 1060.88 19.5142 1060.88 19.2955C1060.88 19.0767 1060.96 18.8894 1061.13 18.7337C1061.29 18.5779 1061.49 18.5 1061.72 18.5C1061.95 18.5 1062.14 18.5779 1062.3 18.7337C1062.47 18.8894 1062.55 19.0767 1062.55 19.2955C1062.55 19.5142 1062.47 19.7015 1062.3 19.8572C1062.14 20.013 1061.95 20.0909 1061.72 20.0909ZM1065.62 24.4062V29H1064.44V21.3636H1065.58V22.5568H1065.68C1065.85 22.169 1066.13 21.8575 1066.49 21.6222C1066.86 21.3835 1067.33 21.2642 1067.9 21.2642C1068.42 21.2642 1068.87 21.3703 1069.26 21.5824C1069.65 21.7912 1069.95 22.1094 1070.17 22.5369C1070.38 22.9612 1070.49 23.4981 1070.49 24.1477V29H1069.32V24.2273C1069.32 23.6274 1069.16 23.16 1068.85 22.8253C1068.54 22.4872 1068.11 22.3182 1067.57 22.3182C1067.19 22.3182 1066.86 22.3994 1066.56 22.5618C1066.27 22.7242 1066.04 22.9612 1065.87 23.2727C1065.7 23.5843 1065.62 23.9621 1065.62 24.4062Z" fill="white"/>
<path d="M1077.11 26.2102V25.3409L1080.94 19.2727H1081.57V20.6193H1081.14L1078.25 25.2045V25.2727H1083.41V26.2102H1077.11ZM1081.21 28V25.946V25.5412V19.2727H1082.22V28H1081.21ZM1087.74 28.1193C1087.24 28.1193 1086.79 28.0199 1086.39 27.821C1085.98 27.6222 1085.66 27.3494 1085.42 27.0028C1085.18 26.6562 1085.05 26.2614 1085.03 25.8182H1086.05C1086.09 26.2131 1086.27 26.5398 1086.59 26.7983C1086.91 27.054 1087.29 27.1818 1087.74 27.1818C1088.09 27.1818 1088.41 27.098 1088.69 26.9304C1088.97 26.7628 1089.19 26.5327 1089.35 26.2401C1089.51 25.9446 1089.59 25.6108 1089.59 25.2386C1089.59 24.858 1089.51 24.5185 1089.34 24.2202C1089.18 23.919 1088.95 23.6818 1088.66 23.5085C1088.37 23.3352 1088.04 23.2472 1087.67 23.2443C1087.4 23.2415 1087.13 23.2827 1086.85 23.3679C1086.56 23.4503 1086.33 23.5568 1086.15 23.6875L1085.16 23.5682L1085.69 19.2727H1090.22V20.2102H1086.58L1086.27 22.7841H1086.32C1086.5 22.642 1086.72 22.5241 1086.99 22.4304C1087.26 22.3366 1087.55 22.2898 1087.84 22.2898C1088.37 22.2898 1088.85 22.4176 1089.27 22.6733C1089.69 22.9261 1090.02 23.2727 1090.25 23.7131C1090.5 24.1534 1090.62 24.6562 1090.62 25.2216C1090.62 25.7784 1090.49 26.2756 1090.24 26.7131C1089.99 27.1477 1089.65 27.4915 1089.22 27.7443C1088.78 27.9943 1088.29 28.1193 1087.74 28.1193ZM1092.73 28.0682C1092.52 28.0682 1092.34 27.9929 1092.19 27.8423C1092.04 27.6918 1091.96 27.5114 1091.96 27.3011C1091.96 27.0909 1092.04 26.9105 1092.19 26.7599C1092.34 26.6094 1092.52 26.5341 1092.73 26.5341C1092.94 26.5341 1093.12 26.6094 1093.27 26.7599C1093.42 26.9105 1093.5 27.0909 1093.5 27.3011C1093.5 27.4403 1093.46 27.5682 1093.39 27.6847C1093.32 27.8011 1093.23 27.8949 1093.12 27.9659C1093 28.0341 1092.87 28.0682 1092.73 28.0682ZM1097.83 28.1193C1097.19 28.1193 1096.64 27.9446 1096.19 27.5952C1095.74 27.2429 1095.39 26.733 1095.15 26.0653C1094.91 25.3949 1094.79 24.5852 1094.79 23.6364C1094.79 22.6932 1094.91 21.8878 1095.15 21.2202C1095.39 20.5497 1095.74 20.0384 1096.19 19.6861C1096.65 19.331 1097.19 19.1534 1097.83 19.1534C1098.46 19.1534 1099.01 19.331 1099.46 19.6861C1099.91 20.0384 1100.26 20.5497 1100.5 21.2202C1100.74 21.8878 1100.86 22.6932 1100.86 23.6364C1100.86 24.5852 1100.74 25.3949 1100.5 26.0653C1100.27 26.733 1099.92 27.2429 1099.47 27.5952C1099.02 27.9446 1098.47 28.1193 1097.83 28.1193ZM1097.83 27.1818C1098.46 27.1818 1098.96 26.875 1099.31 26.2614C1099.66 25.6477 1099.84 24.7727 1099.84 23.6364C1099.84 22.8807 1099.76 22.2372 1099.6 21.706C1099.44 21.1747 1099.21 20.7699 1098.91 20.4915C1098.61 20.2131 1098.25 20.0739 1097.83 20.0739C1097.2 20.0739 1096.7 20.3849 1096.35 21.0071C1095.99 21.6264 1095.82 22.5028 1095.82 23.6364C1095.82 24.392 1095.9 25.0341 1096.06 25.5625C1096.21 26.0909 1096.44 26.4929 1096.74 26.7685C1097.04 27.044 1097.4 27.1818 1097.83 27.1818ZM1102.48 28V27.233L1105.36 24.0795C1105.7 23.7102 1105.98 23.3892 1106.2 23.1165C1106.42 22.8409 1106.58 22.5824 1106.68 22.3409C1106.79 22.0966 1106.85 21.8409 1106.85 21.5739C1106.85 21.267 1106.77 21.0014 1106.62 20.777C1106.48 20.5526 1106.28 20.3793 1106.03 20.2571C1105.77 20.1349 1105.49 20.0739 1105.17 20.0739C1104.84 20.0739 1104.55 20.1435 1104.3 20.2827C1104.05 20.419 1103.86 20.6108 1103.72 20.858C1103.59 21.1051 1103.52 21.3949 1103.52 21.7273H1102.52C1102.52 21.2159 1102.63 20.767 1102.87 20.3807C1103.11 19.9943 1103.43 19.6932 1103.83 19.4773C1104.24 19.2614 1104.7 19.1534 1105.21 19.1534C1105.72 19.1534 1106.17 19.2614 1106.57 19.4773C1106.96 19.6932 1107.27 19.9844 1107.5 20.3509C1107.72 20.7173 1107.83 21.125 1107.83 21.5739C1107.83 21.8949 1107.78 22.2088 1107.66 22.5156C1107.55 22.8196 1107.35 23.1591 1107.06 23.5341C1106.78 23.9062 1106.39 24.3608 1105.89 24.8977L1103.93 26.9943V27.0625H1107.99V28H1102.48ZM1114.2 26.3636V25.9034C1114.2 25.5852 1114.26 25.294 1114.39 25.0298C1114.53 24.7628 1114.72 24.5497 1114.97 24.3906C1115.23 24.2287 1115.54 24.1477 1115.9 24.1477C1116.27 24.1477 1116.58 24.2287 1116.83 24.3906C1117.08 24.5497 1117.27 24.7628 1117.4 25.0298C1117.52 25.294 1117.59 25.5852 1117.59 25.9034V26.3636C1117.59 26.6818 1117.52 26.9744 1117.39 27.2415C1117.26 27.5057 1117.07 27.7187 1116.82 27.8807C1116.57 28.0398 1116.26 28.1193 1115.9 28.1193C1115.53 28.1193 1115.22 28.0398 1114.97 27.8807C1114.71 27.7187 1114.52 27.5057 1114.39 27.2415C1114.26 26.9744 1114.2 26.6818 1114.2 26.3636ZM1115.07 25.9034V26.3636C1115.07 26.6278 1115.13 26.8651 1115.25 27.0753C1115.38 27.2827 1115.59 27.3864 1115.9 27.3864C1116.2 27.3864 1116.41 27.2827 1116.53 27.0753C1116.66 26.8651 1116.72 26.6278 1116.72 26.3636V25.9034C1116.72 25.6392 1116.66 25.4034 1116.54 25.196C1116.42 24.9858 1116.21 24.8807 1115.9 24.8807C1115.6 24.8807 1115.39 24.9858 1115.26 25.196C1115.13 25.4034 1115.07 25.6392 1115.07 25.9034ZM1109.85 21.3693V20.9091C1109.85 20.5909 1109.91 20.2997 1110.05 20.0355C1110.18 19.7685 1110.37 19.5554 1110.62 19.3963C1110.88 19.2344 1111.19 19.1534 1111.55 19.1534C1111.92 19.1534 1112.23 19.2344 1112.48 19.3963C1112.73 19.5554 1112.92 19.7685 1113.05 20.0355C1113.18 20.2997 1113.24 20.5909 1113.24 20.9091V21.3693C1113.24 21.6875 1113.18 21.9801 1113.05 22.2472C1112.92 22.5114 1112.73 22.7244 1112.47 22.8864C1112.22 23.0455 1111.92 23.125 1111.55 23.125C1111.18 23.125 1110.87 23.0455 1110.62 22.8864C1110.37 22.7244 1110.18 22.5114 1110.05 22.2472C1109.91 21.9801 1109.85 21.6875 1109.85 21.3693ZM1110.72 20.9091V21.3693C1110.72 21.6335 1110.78 21.8707 1110.91 22.081C1111.03 22.2884 1111.25 22.392 1111.55 22.392C1111.85 22.392 1112.06 22.2884 1112.18 22.081C1112.31 21.8707 1112.37 21.6335 1112.37 21.3693V20.9091C1112.37 20.6449 1112.31 20.4091 1112.19 20.2017C1112.07 19.9915 1111.86 19.8864 1111.55 19.8864C1111.26 19.8864 1111.04 19.9915 1110.91 20.2017C1110.78 20.4091 1110.72 20.6449 1110.72 20.9091ZM1110.17 28L1116.17 19.2727H1117.14L1111.14 28H1110.17Z" fill="#A1A1A1"/>
</svg>
