<svg width="22" height="22" viewBox="0 0 22 22" fill="none" xmlns="http://www.w3.org/2000/svg">
<path d="M20.1666 15.345V4.28083C20.1666 3.18083 19.2683 2.365 18.1774 2.45667H18.1224C16.1974 2.62167 13.2733 3.6025 11.6416 4.62917L11.4858 4.73C11.2199 4.895 10.7799 4.895 10.5141 4.73L10.2849 4.5925C8.65325 3.575 5.73825 2.60333 3.81325 2.4475C2.72242 2.35583 1.83325 3.18083 1.83325 4.27167V15.345C1.83325 16.225 2.54825 17.05 3.42825 17.16L3.69409 17.1967C5.68325 17.4625 8.75409 18.4708 10.5141 19.4333L10.5508 19.4517C10.7983 19.5892 11.1924 19.5892 11.4308 19.4517C13.1908 18.48 16.2708 17.4625 18.2691 17.1967L18.5716 17.16C19.4516 17.05 20.1666 16.225 20.1666 15.345Z" stroke="#E1E1E1" stroke-width="1.5" stroke-linecap="round" stroke-linejoin="round"/>
<path d="M11 5.0325V18.7825" stroke="#E1E1E1" stroke-width="1.5" stroke-linecap="round" stroke-linejoin="round"/>
<path d="M7.10425 7.7825H5.04175" stroke="#E1E1E1" stroke-width="1.5" stroke-linecap="round" stroke-linejoin="round"/>
<path d="M7.79175 10.5325H5.04175" stroke="#E1E1E1" stroke-width="1.5" stroke-linecap="round" stroke-linejoin="round"/>
</svg>
