<svg width="22" height="23" viewBox="0 0 22 23" fill="none" xmlns="http://www.w3.org/2000/svg">
<path d="M16.0809 8.11623C17.3263 8.11623 18.3359 7.10663 18.3359 5.86123C18.3359 4.61583 17.3263 3.60623 16.0809 3.60623C14.8355 3.60623 13.8259 4.61583 13.8259 5.86123C13.8259 7.10663 14.8355 8.11623 16.0809 8.11623Z" stroke="white" stroke-width="1.5" stroke-miterlimit="10" stroke-linecap="round" stroke-linejoin="round"/>
<path d="M5.92542 8.11623C7.17082 8.11623 8.18041 7.10663 8.18041 5.86123C8.18041 4.61583 7.17082 3.60623 5.92542 3.60623C4.68001 3.60623 3.67041 4.61583 3.67041 5.86123C3.67041 7.10663 4.68001 8.11623 5.92542 8.11623Z" stroke="white" stroke-width="1.5" stroke-miterlimit="10" stroke-linecap="round" stroke-linejoin="round"/>
<path d="M16.0809 19.3927C17.3263 19.3927 18.3359 18.3831 18.3359 17.1377C18.3359 15.8923 17.3263 14.8827 16.0809 14.8827C14.8355 14.8827 13.8259 15.8923 13.8259 17.1377C13.8259 18.3831 14.8355 19.3927 16.0809 19.3927Z" stroke="white" stroke-width="1.5" stroke-miterlimit="10" stroke-linecap="round" stroke-linejoin="round"/>
<path d="M5.92542 19.3927C7.17082 19.3927 8.18041 18.3831 8.18041 17.1377C8.18041 15.8923 7.17082 14.8827 5.92542 14.8827C4.68001 14.8827 3.67041 15.8923 3.67041 17.1377C3.67041 18.3831 4.68001 19.3927 5.92542 19.3927Z" stroke="white" stroke-width="1.5" stroke-miterlimit="10" stroke-linecap="round" stroke-linejoin="round"/>
</svg>
