<svg width="14" height="14" viewBox="0 0 14 14" fill="none" xmlns="http://www.w3.org/2000/svg">
<path fill-rule="evenodd" clip-rule="evenodd" d="M5.97035 0.950743C6.33348 1.29219 6.24981 1.81339 6.07687 2.2105L6.07658 2.21118C5.8145 2.81021 5.6704 3.46696 5.67575 4.16163L5.67576 4.16318C5.68643 6.74118 7.82934 8.94052 10.4536 9.04786L10.454 9.04787C10.8414 9.06401 11.2118 9.03714 11.5714 8.97278C11.8076 8.92976 12.0374 8.92253 12.2431 8.97051C12.4528 9.01942 12.6611 9.13313 12.7902 9.34436C12.9188 9.5547 12.9255 9.79099 12.8762 9.99831C12.8276 10.2025 12.7205 10.4042 12.5792 10.5957C11.3401 12.291 9.2773 13.3644 6.97514 13.2646L6.97487 13.2646C3.70779 13.1209 0.973855 10.5075 0.747693 7.27601C0.541055 4.4114 2.24118 1.91654 4.71242 0.874371C5.10898 0.706405 5.62085 0.622104 5.97035 0.950743ZM5.34918 1.60145C5.2908 1.60307 5.19271 1.62113 5.05321 1.68028L5.05243 1.68061C2.90381 2.58672 1.44232 4.74663 1.62046 7.21348L1.62053 7.21448C1.81461 9.99097 4.17875 12.2656 7.01304 12.3904M5.39604 1.60504C5.39602 1.60506 5.39554 1.60493 5.39465 1.60458C5.39562 1.60484 5.39606 1.60502 5.39604 1.60504ZM5.34918 1.60145C5.34572 1.65275 5.32814 1.73821 5.27481 1.86076C4.9654 2.56809 4.79456 3.34598 4.80077 4.16758C4.81385 7.22424 7.33744 9.79613 10.4179 9.92212C10.8701 9.94095 11.3044 9.90952 11.7262 9.83397L11.7276 9.83372C11.8673 9.80823 11.9619 9.80939 12.0188 9.81785C12.0013 9.87392 11.9601 9.96103 11.8747 10.0767L11.8733 10.0786C10.8024 11.5443 9.01562 12.4771 7.01331 12.3904M12.0721 9.83149C12.0721 9.83149 12.0719 9.83136 12.0714 9.83108L12.0721 9.83149ZM12.0298 9.765C12.0297 9.76422 12.0297 9.7638 12.0297 9.76379C12.0297 9.76378 12.0298 9.76417 12.0298 9.765Z" fill="#0D0D0D"/>
</svg>
