<svg width="22" height="22" viewBox="0 0 22 22" fill="none" xmlns="http://www.w3.org/2000/svg">
<path d="M11 5.90353V8.95603" stroke="white" stroke-width="1.5" stroke-miterlimit="10" stroke-linecap="round"/>
<path d="M11.0176 1.8327C7.6443 1.8327 4.91263 4.56437 4.91263 7.9377V9.8627C4.91263 10.486 4.65596 11.421 4.33513 11.9527L3.17096 13.896C2.45596 15.0969 2.95096 16.4352 4.27096 16.8752C8.65263 18.3327 13.3918 18.3327 17.7735 16.8752C19.011 16.4627 19.5426 15.0144 18.8735 13.896L17.7093 11.9527C17.3885 11.421 17.1318 10.4769 17.1318 9.8627V7.9377C17.1226 4.5827 14.3726 1.8327 11.0176 1.8327Z" stroke="white" stroke-width="1.5" stroke-miterlimit="10" stroke-linecap="round"/>
<path d="M14.056 17.251C14.056 18.9285 12.681 20.3035 11.0035 20.3035C10.1694 20.3035 9.39938 19.9552 8.84938 19.4052C8.29938 18.8552 7.95105 18.0852 7.95105 17.251" stroke="white" stroke-width="1.5" stroke-miterlimit="10"/>
</svg>
