<svg width="22" height="22" viewBox="0 0 22 22" fill="none" xmlns="http://www.w3.org/2000/svg">
<path d="M20.1667 7.79167C20.1667 11.0825 17.4992 13.75 14.2083 13.75C14.0525 13.75 13.8875 13.7408 13.7317 13.7317C13.5025 10.8258 11.1742 8.49749 8.26832 8.26833C8.25916 8.11249 8.25 7.9475 8.25 7.79167C8.25 4.50084 10.9175 1.83334 14.2083 1.83334C17.4992 1.83334 20.1667 4.50084 20.1667 7.79167Z" stroke="#E1E1E1" stroke-width="1.5" stroke-linecap="round" stroke-linejoin="round"/>
<path d="M13.7499 14.2083C13.7499 17.4992 11.0824 20.1667 7.79159 20.1667C4.50075 20.1667 1.83325 17.4992 1.83325 14.2083C1.83325 10.9175 4.50075 8.25 7.79159 8.25C7.94742 8.25 8.11241 8.25916 8.26824 8.26832C11.1741 8.49749 13.5024 10.8258 13.7316 13.7317C13.7408 13.8875 13.7499 14.0525 13.7499 14.2083Z" stroke="#E1E1E1" stroke-width="1.5" stroke-linecap="round" stroke-linejoin="round"/>
<path d="M5.12408 1.83334H2.74992C2.24575 1.83334 1.83325 2.24584 1.83325 2.75V5.12417C1.83325 5.94 2.82324 6.35249 3.40074 5.77499L5.77491 3.40083C6.34324 2.82333 5.93992 1.83334 5.12408 1.83334Z" stroke="#E1E1E1" stroke-width="1.5" stroke-linecap="round" stroke-linejoin="round"/>
<path d="M16.8757 20.1667H19.2499C19.7541 20.1667 20.1666 19.7542 20.1666 19.25V16.8758C20.1666 16.06 19.1766 15.6475 18.5991 16.225L16.2249 18.5992C15.6566 19.1767 16.0599 20.1667 16.8757 20.1667Z" stroke="#E1E1E1" stroke-width="1.5" stroke-linecap="round" stroke-linejoin="round"/>
</svg>
