<svg width="22" height="23" viewBox="0 0 22 23" fill="none" xmlns="http://www.w3.org/2000/svg">
<path fill-rule="evenodd" clip-rule="evenodd" d="M14.2243 1.81753C15.2938 1.68077 16.3758 2.11812 17.4753 3.15263L17.4766 3.15382C18.5797 4.19707 19.0819 5.25536 19.0066 6.33325C18.9338 7.37481 18.33 8.25638 17.6414 8.9838M17.6414 8.9838L10.1193 16.9457C9.90729 17.1766 9.62175 17.3722 9.35106 17.5169C9.0769 17.6635 8.75976 17.789 8.46204 17.8419L8.45746 17.8427L5.50685 18.3467C4.79133 18.47 4.10521 18.2912 3.61644 17.8277C3.12835 17.3648 2.91267 16.6898 2.99257 15.9707L2.99281 15.9687L3.33345 12.9858C3.37301 12.6891 3.48321 12.368 3.61311 12.0894C3.74254 11.8119 3.91914 11.5176 4.12812 11.2951L4.12946 11.2937L11.6553 3.32786C12.3442 2.60014 13.1908 1.94969 14.2243 1.81753M12.6543 4.27264C12.6542 4.27276 12.6544 4.27252 12.6543 4.27264L5.13029 12.2365C5.13013 12.2367 5.13044 12.2364 5.13029 12.2365C5.05515 12.3167 4.95193 12.4719 4.85926 12.6706C4.76827 12.8657 4.71362 13.0462 4.69724 13.1622L4.35917 16.1226C4.35913 16.1229 4.3591 16.1232 4.35906 16.1235C4.32009 16.4764 4.42976 16.704 4.5626 16.83C4.69487 16.9554 4.92541 17.0516 5.27323 16.9917L5.27428 16.9915L8.2233 16.4878C8.33813 16.467 8.51507 16.4047 8.70276 16.3043C8.89304 16.2026 9.03619 16.0929 9.10784 16.0143L9.11605 16.0053L16.642 8.03953C17.2549 7.39205 17.5955 6.80203 17.6349 6.23737C17.6719 5.70895 17.4546 5.0258 16.5326 4.15355C15.6156 3.29098 14.9241 3.11424 14.3987 3.18143C13.8373 3.25321 13.2669 3.62558 12.6543 4.27264Z" fill="white"/>
<path fill-rule="evenodd" clip-rule="evenodd" d="M10.7933 4.44987C11.1685 4.39142 11.52 4.64817 11.5785 5.02334C11.9241 7.24224 13.725 8.94046 15.9639 9.16597C16.3417 9.20402 16.6171 9.54112 16.579 9.9189C16.541 10.2967 16.2039 10.5721 15.8261 10.534C12.9683 10.2462 10.6625 8.07611 10.2198 5.23501C10.1614 4.85984 10.4181 4.50832 10.7933 4.44987Z" fill="white"/>
<path fill-rule="evenodd" clip-rule="evenodd" d="M2.0625 20.6667C2.0625 20.287 2.3703 19.9792 2.75 19.9792H19.25C19.6297 19.9792 19.9375 20.287 19.9375 20.6667C19.9375 21.0464 19.6297 21.3542 19.25 21.3542H2.75C2.3703 21.3542 2.0625 21.0464 2.0625 20.6667Z" fill="white"/>
</svg>
