<svg width="16" height="16" viewBox="0 0 16 16" fill="none" xmlns="http://www.w3.org/2000/svg">
<path fill-rule="evenodd" clip-rule="evenodd" d="M7.91992 2.12666C8.05253 2.12666 8.17971 2.17934 8.27348 2.27311L9.98014 3.97978C10.1754 4.17504 10.1754 4.49162 9.98014 4.68688C9.78488 4.88215 9.4683 4.88215 9.27304 4.68688L7.91992 3.33377L6.56681 4.68688C6.37155 4.88215 6.05497 4.88215 5.8597 4.68688C5.66444 4.49162 5.66444 4.17504 5.8597 3.97978L7.56637 2.27311C7.66014 2.17934 7.78732 2.12666 7.91992 2.12666Z" fill="white"/>
<path fill-rule="evenodd" clip-rule="evenodd" d="M7.91992 2.17332C8.19606 2.17332 8.41992 2.39718 8.41992 2.67332V9.45333C8.41992 9.72947 8.19606 9.95333 7.91992 9.95333C7.64378 9.95333 7.41992 9.72947 7.41992 9.45333V2.67332C7.41992 2.39718 7.64378 2.17332 7.91992 2.17332Z" fill="white"/>
<path fill-rule="evenodd" clip-rule="evenodd" d="M2.66663 7.5C2.94277 7.5 3.16663 7.72386 3.16663 8C3.16663 9.36041 3.62738 10.5657 4.44581 11.4273C5.26048 12.2849 6.45891 12.8333 7.99996 12.8333C9.541 12.8333 10.7394 12.2849 11.5541 11.4273C12.3725 10.5657 12.8333 9.36041 12.8333 8C12.8333 7.72386 13.0571 7.5 13.3333 7.5C13.6094 7.5 13.8333 7.72386 13.8333 8C13.8333 9.58626 13.294 11.0476 12.2791 12.116C11.2605 13.1884 9.79225 13.8333 7.99996 13.8333C6.20767 13.8333 4.73944 13.1884 3.72078 12.116C2.70588 11.0476 2.16663 9.58626 2.16663 8C2.16663 7.72386 2.39048 7.5 2.66663 7.5Z" fill="white"/>
</svg>
