<svg width="12" height="12" viewBox="0 0 12 12" fill="none" xmlns="http://www.w3.org/2000/svg">
<path fill-rule="evenodd" clip-rule="evenodd" d="M11.375 6C11.375 8.95711 8.95711 11.375 6 11.375C3.04289 11.375 0.625 8.95711 0.625 6C0.624999 3.04289 3.04289 0.625001 6 0.625C8.95711 0.625 11.375 3.04289 11.375 6ZM6 10.625C8.54289 10.625 10.625 8.54289 10.625 6C10.625 3.45711 8.54289 1.375 6 1.375C3.45711 1.375 1.375 3.45711 1.375 6C1.375 8.54289 3.45711 10.625 6 10.625Z" fill="#E1E1E1"/>
<path fill-rule="evenodd" clip-rule="evenodd" d="M6 8.375C5.79289 8.375 5.625 8.20711 5.625 8L5.625 5.5C5.625 5.29289 5.79289 5.125 6 5.125C6.20711 5.125 6.375 5.29289 6.375 5.5L6.375 8C6.375 8.20711 6.20711 8.375 6 8.375Z" fill="#E1E1E1"/>
<path fill-rule="evenodd" clip-rule="evenodd" d="M6.50269 4C6.50269 4.27614 6.27883 4.5 6.00269 4.5L5.99819 4.5C5.72205 4.5 5.49819 4.27614 5.49819 4C5.49819 3.72386 5.72205 3.5 5.99819 3.5L6.00269 3.5C6.27883 3.5 6.50269 3.72386 6.50269 4Z" fill="#E1E1E1"/>
</svg>
