<svg width="22" height="22" viewBox="0 0 22 22" fill="none" xmlns="http://www.w3.org/2000/svg">
<path d="M9.16663 17.4167C9.16663 18.425 9.99163 19.25 11 19.25C12.0083 19.25 12.8333 18.425 12.8333 17.4167C12.8333 16.4083 12.0083 15.5833 11 15.5833C9.99163 15.5833 9.16663 16.4083 9.16663 17.4167Z" stroke="#E1E1E1" stroke-width="1.5"/>
<path d="M9.16663 4.58333C9.16663 5.59167 9.99163 6.41667 11 6.41667C12.0083 6.41667 12.8333 5.59167 12.8333 4.58333C12.8333 3.575 12.0083 2.75 11 2.75C9.99163 2.75 9.16663 3.575 9.16663 4.58333Z" stroke="#E1E1E1" stroke-width="1.5"/>
<path d="M9.16663 11C9.16663 12.0083 9.99163 12.8333 11 12.8333C12.0083 12.8333 12.8333 12.0083 12.8333 11C12.8333 9.99167 12.0083 9.16667 11 9.16667C9.99163 9.16667 9.16663 9.99167 9.16663 11Z" stroke="#E1E1E1" stroke-width="1.5"/>
</svg>
