<svg width="120" height="120" viewBox="0 0 120 120" fill="none" xmlns="http://www.w3.org/2000/svg">
<path d="M47.8581 62.9184H47.8889L47.8581 62.9292V62.9184ZM44.8581 63H47.6576L46.1976 63.5151L45.7759 65.0134L38.3944 91.2366C38.3944 91.2367 38.3944 91.2367 38.3944 91.2367C37.6266 93.964 38.5168 96.7213 40.8526 98.1447C43.0964 99.512 45.9024 99.1798 48.1207 97.5995L88.1614 69.0748L86.4207 66.6315L88.1614 69.0748C90.5396 67.3806 91.7412 64.6913 91.46 62.1541C91.3181 60.8745 90.7809 59.5635 89.7269 58.5559C88.6455 57.5223 87.2192 57 85.6857 57H73.6574L81.6057 28.7635C81.6057 28.7635 81.6057 28.7634 81.6057 28.7634C82.3735 26.036 81.4831 23.2788 79.1474 21.8554C76.9036 20.4882 74.0977 20.8201 71.8794 22.4005C71.8793 22.4006 71.8793 22.4006 71.8793 22.4006L31.8387 50.9254L31.8387 50.9254C29.4606 52.6195 28.2587 55.3087 28.5399 57.8459C28.6818 59.1256 29.2191 60.4366 30.2732 61.4441C31.3546 62.4778 32.781 63 34.3143 63H44.8581ZM117 60C117 91.4802 91.4802 117 60 117C28.5197 117 3 91.4802 3 60C3 28.5198 28.5197 3 60 3C91.4803 3 117 28.5198 117 60Z" stroke="black" stroke-width="6"/>
</svg>
