<svg width="358" height="401" viewBox="0 0 358 401" fill="none" xmlns="http://www.w3.org/2000/svg">
<path opacity="0.0344828" d="M24.5212 115.847C2.21773 106.868 5.64266 74.2824 29.3255 70.1371L82.1487 60.8913C95.916 58.4816 105.288 45.5826 103.325 31.7444L95.7951 -21.3505C92.4191 -45.1552 122.352 -58.4819 137.783 -40.0446L172.202 1.07867C181.172 11.7967 197.029 13.4633 208.032 4.84455L250.248 -28.2241C269.176 -43.0501 295.683 -23.7912 287.432 -1.20865L269.027 49.1605C264.231 62.2882 270.716 76.8538 283.681 82.0733L333.428 102.1C355.731 111.078 352.306 143.664 328.623 147.809L275.8 157.055C262.033 159.465 252.661 172.364 254.624 186.202L262.154 239.297C265.53 263.101 235.597 276.428 220.166 257.991L185.747 216.868C176.777 206.15 160.92 204.483 149.917 213.102L107.7 246.17C88.7731 260.996 62.2655 241.737 70.517 219.155L88.9215 168.786C93.7183 155.658 87.2332 141.092 74.2677 135.873L24.5212 115.847Z" stroke="white" stroke-opacity="0.2" stroke-width="2"/>
<path opacity="0.0689655" d="M27.2495 108.208C5.44648 98.0749 10.5721 65.713 34.4394 62.8129L85.6604 56.5891C99.535 54.9032 109.569 42.5123 108.333 28.5904L103.772 -22.8054C101.646 -46.7541 132.235 -58.4962 146.68 -39.2765L177.681 1.97025C186.078 13.1431 201.826 15.6373 213.265 7.60624L255.494 -22.0421C275.172 -35.8572 300.635 -15.2374 291.213 6.88232L270.992 54.353C265.515 67.2117 271.229 82.0968 283.904 87.9877L330.694 109.735C352.497 119.869 347.372 152.231 323.504 155.131L272.283 161.355C258.409 163.04 248.375 175.431 249.61 189.353L254.172 240.749C256.298 264.698 225.709 276.44 211.263 257.22L180.263 215.973C171.866 204.801 156.118 202.306 144.679 210.337L102.45 239.986C82.7722 253.801 57.3088 233.181 66.7309 211.061L86.9514 163.591C92.4286 150.732 86.7148 135.847 74.0403 129.956L27.2495 108.208Z" stroke="white" stroke-opacity="0.2" stroke-width="2"/>
<path opacity="0.103448" d="M30.3501 100.877C9.10735 89.6163 15.9196 57.5671 39.906 55.92L89.3589 52.5244C103.303 51.5669 113.971 39.7181 113.466 25.7506L111.674 -23.7864C110.805 -47.8135 141.966 -57.9385 155.386 -37.9892L183.053 3.14045C190.854 14.7374 206.45 18.0524 218.293 10.631L260.298 -15.6896C280.671 -28.4559 305.02 -6.53171 294.454 15.0646L272.668 59.59C266.525 72.1444 271.452 87.3081 283.801 93.8543L327.597 117.071C348.84 128.331 342.028 160.381 318.041 162.028L268.589 165.423C254.645 166.381 243.976 178.23 244.481 192.197L246.274 241.734C247.143 265.761 215.981 275.886 202.562 255.937L174.894 214.807C167.093 203.21 151.498 199.895 139.654 207.317L97.6499 233.637C77.2764 246.404 52.9271 224.479 63.4939 202.883L85.2796 158.358C91.4223 145.803 86.4954 130.64 74.1465 124.094L30.3501 100.877Z" stroke="white" stroke-opacity="0.2" stroke-width="2"/>
<path opacity="0.137931" d="M33.795 93.8623C13.1707 81.5053 21.651 49.8565 45.6907 49.4671L93.2255 48.6971C107.2 48.4707 118.475 37.1965 118.701 23.2217L119.471 -24.3131C119.86 -48.3528 151.509 -56.8331 163.866 -36.2088L188.3 4.57255C195.484 16.5619 210.885 20.6885 223.1 13.8972L264.652 -9.20333C285.666 -20.886 308.834 2.28255 297.151 23.2962L274.051 64.8476C267.26 77.0633 271.386 92.4641 283.375 99.6476L324.157 124.082C344.781 136.439 336.301 168.088 312.261 168.477L264.726 169.247C250.752 169.474 239.477 180.748 239.251 194.723L238.481 242.257C238.092 266.297 206.443 274.777 194.086 254.153L169.651 213.372C162.468 201.382 147.067 197.256 134.851 204.047L93.3001 227.148C72.2864 238.83 49.1179 215.662 60.8005 194.648L83.901 153.097C90.6924 140.881 86.5658 125.48 74.5764 118.297L33.795 93.8623Z" stroke="white" stroke-opacity="0.2" stroke-width="2"/>
<path opacity="0.172414" d="M37.5556 87.1896C17.6063 73.7701 27.7313 42.6085 51.7585 43.4777L97.2413 45.1232C111.209 45.6285 123.058 34.9598 124.015 21.0161L127.133 -24.3897C128.78 -48.3761 160.829 -55.1884 172.09 -33.9456L193.406 6.26647C199.952 18.6153 215.116 23.5423 227.671 17.3996L268.552 -2.60318C290.148 -13.17 312.073 11.1793 299.306 31.5528L275.14 70.1194C267.718 81.963 271.033 97.5586 282.63 105.36L320.394 130.763C340.343 144.182 330.218 175.344 306.191 174.475L260.708 172.829C246.741 172.324 234.892 182.992 233.934 196.936L230.817 242.342C229.17 266.328 197.12 273.141 185.86 251.898L164.543 211.686C157.997 199.337 142.833 194.41 130.279 200.553L89.3975 220.555C67.8012 231.122 45.8769 206.773 58.6433 186.399L82.8098 147.833C90.2312 135.989 86.9162 120.394 75.3192 112.593L37.5556 87.1896Z" stroke="white" stroke-opacity="0.2" stroke-width="2"/>
<path opacity="0.206897" d="M41.6083 80.861C22.3886 66.4158 34.1306 35.8268 58.0794 37.9524L101.393 41.7967C115.315 43.0323 127.706 32.9984 129.392 19.1238L134.637 -24.043C137.537 -47.9103 169.899 -53.0359 180.033 -31.2329L198.361 8.20027C204.252 20.8748 219.137 26.5886 231.995 21.1114L272.001 4.07048C294.121 -5.35162 314.741 20.1117 300.926 39.7892L275.94 75.3781C267.909 86.817 270.403 102.565 281.576 110.962L316.337 137.088C335.556 151.533 323.814 182.122 299.865 179.997L256.551 176.152C242.629 174.917 230.239 184.951 228.553 198.825L223.307 241.992C220.407 265.859 188.046 270.985 177.912 249.182L159.584 209.749C153.693 197.074 138.808 191.36 125.95 196.838L85.9434 213.879C63.8236 223.301 43.2038 197.837 57.0189 178.16L82.0052 142.571C90.0363 131.132 87.542 115.384 76.3692 106.987L41.6083 80.861Z" stroke="white" stroke-opacity="0.2" stroke-width="2"/>
<path opacity="0.241379" d="M45.9325 74.8949C27.4953 59.4636 40.8221 29.5311 64.6267 32.9071L105.672 38.7282C119.51 40.6908 132.409 31.3191 134.819 17.5517L141.966 -23.2834C146.112 -46.9662 178.697 -50.3911 187.676 -28.0876L203.157 10.3691C208.377 23.3346 222.942 29.8196 236.07 25.0228L275.008 10.7951C297.591 2.54363 316.85 29.0513 302.024 47.9787L276.46 80.6144C267.841 91.6173 269.508 107.474 280.226 116.445L312.016 143.052C330.454 158.483 317.127 188.416 293.322 185.04L252.277 179.219C238.439 177.256 225.54 186.628 223.13 200.395L215.982 241.23C211.837 264.913 179.251 268.338 170.273 246.035L154.791 207.578C149.572 194.612 135.006 188.127 121.879 192.924L82.9406 207.152C60.358 215.403 41.0991 188.896 55.9252 169.968L81.489 137.333C90.1077 126.33 88.4411 110.473 77.7231 101.502L45.9325 74.8949Z" stroke="white" stroke-opacity="0.2" stroke-width="2"/>
<path opacity="0.275862" d="M50.494 69.3045C32.8896 52.9294 47.7647 23.7354 71.3601 28.3526L110.054 35.9244C123.77 38.6085 137.142 29.9247 140.269 16.3023L149.09 -22.1259C154.469 -45.5593 187.189 -47.2741 194.988 -24.5313L207.778 12.7644C212.312 25.9852 226.518 33.2237 239.879 29.1205L277.569 17.5456C300.553 10.4873 318.398 37.9666 302.602 56.0921L276.697 85.816C267.515 96.3528 268.349 112.275 278.583 121.794L307.452 148.648C325.057 165.023 310.181 194.217 286.586 189.599L247.892 182.028C234.176 179.344 220.804 188.027 217.677 201.65L208.856 240.078C203.477 263.511 170.757 265.226 162.958 242.483L150.168 205.188C145.634 191.967 131.428 184.728 118.067 188.832L80.377 200.406C57.3935 207.465 39.5483 179.985 55.3447 161.86L81.2488 132.136C90.4316 121.599 89.5971 105.677 79.3633 96.1578L50.494 69.3045Z" stroke="white" stroke-opacity="0.2" stroke-width="2"/>
<path opacity="0.310345" d="M55.2719 64.0906C38.5487 46.8166 54.9313 18.4411 78.2526 24.2868L114.53 33.3801C128.087 36.7784 141.895 28.8063 145.73 15.3663L155.994 -20.597C162.592 -43.7168 195.357 -43.7168 201.955 -20.597L212.219 15.3663C216.054 28.8064 229.862 36.7784 243.419 33.3801L279.696 24.2869C303.018 18.4411 319.4 46.8166 302.677 64.0906L276.664 90.9607C266.942 101.002 266.942 116.946 276.664 126.988L302.677 153.858C319.4 171.132 303.018 199.508 279.696 193.662L243.419 184.569C229.862 181.171 216.054 189.143 212.219 202.583L201.955 238.546C195.357 261.666 162.592 261.666 155.994 238.546L145.73 202.583C141.895 189.143 128.087 181.171 114.529 184.569L78.2526 193.662C54.9313 199.508 38.5487 171.132 55.2719 153.858L81.2854 126.988C91.007 116.946 91.007 101.002 81.2854 90.9607L55.2719 64.0906Z" stroke="white" stroke-opacity="0.2" stroke-width="2"/>
<path opacity="0.344828" d="M60.2319 59.2657C44.4356 41.1402 62.2808 13.661 85.2643 20.7193L119.077 31.1032C132.437 35.2063 146.644 27.9679 151.177 14.747L162.651 -18.7112C170.45 -41.454 203.17 -39.7392 208.549 -16.3058L216.463 18.1685C219.59 31.7908 232.962 40.4746 246.678 37.7905L281.391 30.9978C304.986 26.3806 319.861 55.5747 302.257 71.9497L276.358 96.0401C266.124 105.559 265.289 121.481 274.472 132.018L297.711 158.684C313.507 176.809 295.662 204.289 272.679 197.23L238.866 186.846C225.506 182.743 211.299 189.982 206.766 203.203L195.292 236.661C187.493 259.404 154.773 257.689 149.394 234.255L141.48 199.781C138.353 186.159 124.981 177.475 111.265 180.159L76.5524 186.952C52.9571 191.569 38.082 162.375 55.6864 146L81.5852 121.909C91.8191 112.39 92.6535 96.4681 83.4708 85.9313L60.2319 59.2657Z" stroke="white" stroke-opacity="0.2" stroke-width="2"/>
<path opacity="0.37931" d="M65.3559 54.8332C50.5298 35.9058 69.7888 9.39813 92.3713 17.6496L123.689 29.0928C136.816 33.8895 151.382 27.4045 156.601 14.439L169.053 -16.4912C178.032 -38.7946 210.617 -35.3698 214.763 -11.6869L220.511 21.1562C222.921 34.9235 235.82 44.2952 249.658 42.3327L282.67 37.6509C306.475 34.2748 319.802 64.2074 301.364 79.6387L275.796 101.039C265.078 110.009 263.411 125.866 272.03 136.869L292.59 163.117C307.416 182.045 288.158 208.552 265.575 200.301L234.258 188.858C221.13 184.061 206.564 190.546 201.345 203.511L188.893 234.442C179.915 256.745 147.329 253.32 143.184 229.637L137.435 196.794C135.025 183.027 122.126 173.655 108.288 175.618L75.2761 180.3C51.4715 183.676 38.1446 153.743 56.5819 138.312L82.1506 116.912C92.8686 107.941 94.5352 92.0845 85.9165 81.0816L65.3559 54.8332Z" stroke="white" stroke-opacity="0.2" stroke-width="2"/>
<path opacity="0.413793" d="M70.609 50.7959C56.7939 31.1185 77.4137 5.65512 99.5335 15.0772L128.343 27.3488C141.202 32.826 156.087 27.1122 161.978 14.4376L175.176 -13.9592C185.309 -35.7621 217.671 -30.6365 220.571 -6.7692L224.348 24.3162C226.034 38.1908 238.425 48.2248 252.347 46.9891L283.539 44.2208C307.487 42.0952 319.229 72.6842 300.01 87.1294L274.978 105.943C263.805 114.341 261.311 130.088 269.342 141.527L287.335 167.156C301.15 186.833 280.53 212.297 258.41 202.874L229.601 190.603C216.742 185.126 201.857 190.839 195.966 203.514L182.768 231.911C172.635 253.714 140.273 248.588 137.373 224.721L133.595 193.635C131.909 179.761 119.519 169.727 105.597 170.962L74.4052 173.731C50.4565 175.856 38.7145 145.267 57.9341 130.822L82.9663 112.008C94.1391 103.611 96.6333 87.8632 88.6023 76.4243L70.609 50.7959Z" stroke="white" stroke-opacity="0.2" stroke-width="2"/>
<path opacity="0.448276" d="M75.971 47.1532C63.2046 26.7797 85.1289 2.43045 106.725 12.9973L133.031 25.8683C145.585 32.0111 160.749 27.0841 167.295 14.7352L181.011 -11.1397C192.272 -32.3825 224.321 -25.5703 225.968 -1.58387L227.975 27.633C228.932 41.5768 240.781 52.2455 254.748 51.7402L284.015 50.6814C308.042 49.8121 318.167 80.9737 298.218 94.3933L273.918 110.739C262.321 118.54 259.006 134.136 266.428 145.979L281.978 170.796C294.744 191.169 272.82 215.518 251.224 204.952L224.918 192.081C212.364 185.938 197.2 190.865 190.654 203.214L176.937 229.089C165.677 250.331 133.628 243.519 131.98 219.533L129.974 190.316C129.017 176.372 117.168 165.703 103.201 166.209L73.934 167.267C49.9069 168.137 39.7819 136.975 59.7312 123.556L84.0307 107.21C95.6277 99.4087 98.9426 83.813 91.5213 71.9694L75.971 47.1532Z" stroke="white" stroke-opacity="0.2" stroke-width="2"/>
<path opacity="0.482759" d="M81.4067 43.9076C69.724 22.8939 92.8926 -0.274672 113.906 11.4079L137.729 24.6525C149.945 31.4438 165.346 27.3172 172.529 15.3278L186.539 -8.05382C198.896 -28.6781 230.545 -20.1979 230.934 3.84183L231.375 31.0956C231.602 45.0704 242.876 56.3446 256.851 56.5709L284.104 57.0124C308.144 57.4018 316.624 89.0506 296 101.408L272.618 115.417C260.629 122.6 256.502 138.001 263.294 150.217L276.538 174.04C288.221 195.054 265.052 218.222 244.039 206.54L220.216 193.295C208 186.504 192.599 190.63 185.416 202.62L171.406 226.001C159.049 246.626 127.401 238.146 127.011 214.106L126.57 186.852C126.343 172.877 115.069 161.603 101.094 161.377L73.8406 160.935C49.8009 160.546 41.3206 128.897 61.9449 116.54L85.3265 102.531C97.3159 95.3473 101.443 79.9465 94.6512 67.7307L81.4067 43.9076Z" stroke="white" stroke-opacity="0.2" stroke-width="2"/>
<path opacity="0.517241" d="M86.898 41.0576C76.3312 19.4613 100.68 -2.46292 121.054 10.3034L142.433 23.6996C154.276 31.121 169.872 27.806 177.673 16.2091L191.754 -4.72437C205.174 -24.6737 236.336 -14.5487 235.466 9.47848L234.554 34.6909C234.049 48.6584 244.718 60.5072 258.661 61.4646L283.831 63.1929C307.817 64.8399 314.63 96.8892 293.387 108.15L271.096 119.966C258.747 126.512 253.82 141.676 259.963 154.23L271.051 176.892C281.618 198.489 257.269 220.413 236.895 207.646L215.517 194.25C203.673 186.829 188.077 190.144 180.276 201.741L166.195 222.674C152.775 242.624 121.614 232.499 122.483 208.471L123.395 183.259C123.9 169.291 113.232 157.443 99.2879 156.485L74.1182 154.757C50.1318 153.11 43.3196 121.061 64.5623 109.8L86.853 97.9836C99.2019 91.4375 104.129 76.2738 97.9861 63.7194L86.898 41.0576Z" stroke="white" stroke-opacity="0.2" stroke-width="2"/>
<path opacity="0.551724" d="M92.4097 38.5961C82.9876 16.4764 108.451 -4.14344 128.128 9.67169L147.116 23.0029C158.555 31.0339 174.303 28.5397 182.7 17.3669L196.64 -1.17944C211.085 -20.3991 241.674 -8.65707 239.548 15.2917L237.497 38.4014C236.262 52.3233 246.296 64.7142 260.17 66.4001L283.201 69.1986C307.069 72.0987 312.194 104.461 290.391 114.594L269.352 124.373C256.678 130.264 250.964 145.149 256.441 158.007L265.533 179.352C274.955 201.472 249.492 222.092 229.814 208.277L210.826 194.945C199.387 186.914 183.639 189.409 175.242 200.581L161.303 219.128C146.858 238.347 116.269 226.605 118.394 202.657L120.445 179.547C121.681 165.625 111.647 153.234 97.7725 151.548L74.7413 148.75C50.874 145.85 45.7484 113.488 67.5513 103.354L88.5905 93.5756C101.265 87.6848 106.979 72.7997 101.502 59.941L92.4097 38.5961Z" stroke="white" stroke-opacity="0.2" stroke-width="2"/>
<path opacity="0.586207" d="M97.9261 36.5179C89.6746 13.9353 116.182 -5.32357 135.11 9.50247L151.777 22.5583C162.78 31.1771 178.637 29.5104 187.607 18.7924L201.196 2.55646C216.628 -15.8808 246.56 -2.554 243.184 21.2507L240.211 42.2132C238.249 56.0513 247.62 68.9503 261.388 71.3601L282.243 75.0104C305.926 79.1557 309.351 111.741 287.047 120.72L267.407 128.627C254.441 133.846 247.956 148.412 252.753 161.539L260.019 181.426C268.271 204.008 241.763 223.267 222.836 208.441L206.168 195.385C195.165 186.767 179.308 188.433 170.338 199.151L156.749 215.387C141.318 233.824 111.385 220.498 114.761 196.693L117.734 175.73C119.697 161.892 110.325 148.993 96.5576 146.584L75.7024 142.933C52.0196 138.788 48.5947 106.202 70.8982 97.2236L90.5387 89.317C103.504 84.0976 109.989 69.5319 105.192 56.4042L97.9261 36.5179Z" stroke="white" stroke-opacity="0.2" stroke-width="2"/>
<path opacity="0.62069" d="M103.42 34.8229C96.3613 11.8395 123.841 -6.00577 141.966 9.79053L156.398 22.3681C166.935 31.5509 182.857 30.7164 192.377 20.4826L205.415 6.46536C221.79 -11.1391 250.984 3.73602 246.367 27.3314L242.69 46.1189C240.006 59.8353 248.69 73.2072 262.313 76.3341L280.971 80.6171C304.404 85.9962 306.119 118.717 283.376 126.516L265.268 132.725C252.047 137.259 244.809 151.465 248.912 164.826L254.532 183.126C261.59 206.11 234.111 223.955 215.985 208.159L201.553 195.581C191.016 186.399 175.094 187.233 165.575 197.467L152.536 211.484C136.161 229.089 106.967 214.213 111.584 190.618L115.261 171.831C117.945 158.114 109.261 144.742 95.6389 141.615L76.9803 137.332C53.5469 131.953 51.8321 99.2329 74.5749 91.4339L92.6835 85.224C105.904 80.6903 113.143 66.484 109.04 53.1232L103.42 34.8229Z" stroke="white" stroke-opacity="0.2" stroke-width="2"/>
<path opacity="0.655172" d="M108.86 33.4944C103.014 10.173 131.39 -6.20961 148.664 10.5137L160.96 22.4185C171.002 32.1401 186.946 32.1401 196.988 22.4185L209.285 10.5137C226.559 -6.20958 254.934 10.173 249.089 33.4944L244.927 50.0962C241.529 63.6534 249.501 77.4614 262.941 81.297L279.399 85.994C302.519 92.5921 302.519 125.357 279.399 131.955L262.941 136.652C249.501 140.488 241.529 154.296 244.927 167.853L249.089 184.455C254.934 207.776 226.559 224.159 209.285 207.436L196.988 195.531C186.946 185.809 171.002 185.809 160.96 195.531L148.664 207.436C131.39 224.159 103.014 207.776 108.86 184.455L113.021 167.853C116.42 154.296 108.448 140.488 95.0075 136.652L78.5492 131.955C55.4294 125.357 55.4294 92.5921 78.5492 85.994L95.0075 81.2971C108.448 77.4614 116.42 63.6535 113.021 50.0962L108.86 33.4944Z" stroke="white" stroke-opacity="0.2" stroke-width="2"/>
<path opacity="0.689655" d="M114.227 32.5183C109.61 8.92293 138.804 -5.95217 155.179 11.6522L165.455 22.6992C174.974 32.933 190.896 33.7674 201.433 24.5847L212.807 14.6724C230.932 -1.12392 258.411 16.7213 251.353 39.7048L246.924 54.1271C242.821 67.4879 250.059 81.6941 263.28 86.2279L277.551 91.1218C300.294 98.9209 298.579 131.641 275.146 137.02L260.441 140.396C246.819 143.523 238.135 156.894 240.819 170.611L243.717 185.417C248.334 209.013 219.14 223.888 202.765 206.283L192.489 195.236C182.97 185.002 167.048 184.168 156.511 193.351L145.137 203.263C127.012 219.059 99.5323 201.214 106.591 178.231L111.02 163.808C115.123 150.448 107.885 136.241 94.6636 131.708L80.3924 126.814C57.6496 119.015 59.3644 86.2943 82.7978 80.9152L97.5024 77.5398C111.125 74.4129 119.809 61.041 117.124 47.3245L114.227 32.5183Z" stroke="white" stroke-opacity="0.2" stroke-width="2"/>
<path opacity="0.724138" d="M119.504 31.8968C116.128 8.09219 146.06 -5.23462 161.491 13.2027L169.873 23.2168C178.843 33.9348 194.7 35.6014 205.703 26.9827L215.983 18.93C234.911 4.10399 261.418 23.3629 253.167 45.9455L248.685 58.211C243.888 71.3388 250.373 85.9044 263.339 91.1239L275.453 96.0005C297.756 104.979 294.331 137.565 270.649 141.71L257.785 143.962C244.018 146.371 234.646 159.27 236.609 173.109L238.443 186.038C241.819 209.843 211.886 223.169 196.455 204.732L188.073 194.718C179.103 184 163.246 182.333 152.243 190.952L141.963 199.005C123.035 213.831 96.5279 194.572 104.779 171.989L109.261 159.724C114.058 146.596 107.573 132.03 94.6074 126.811L82.4934 121.934C60.19 112.956 63.6149 80.3699 87.2977 76.2246L100.161 73.9732C113.928 71.5634 123.3 58.6644 121.337 44.8262L119.504 31.8968Z" stroke="white" stroke-opacity="0.2" stroke-width="2"/>
<path opacity="0.758621" d="M124.663 31.6135C122.537 7.66483 153.126 -4.07716 167.572 15.1425L174.199 23.96C182.596 35.1328 198.344 37.627 209.783 29.596L218.81 23.2579C238.488 9.44275 263.951 30.0626 254.529 52.1823L250.206 62.3304C244.729 75.1891 250.443 90.0742 263.118 95.9651L273.12 100.614C294.923 110.748 289.798 143.11 265.93 146.01L254.981 147.34C241.106 149.026 231.072 161.417 232.308 175.339L233.283 186.326C235.408 210.275 204.819 222.017 190.374 202.797L183.747 193.98C175.35 182.807 159.602 180.313 148.163 188.344L139.135 194.682C119.458 208.497 93.9946 187.877 103.417 165.757L107.739 155.609C113.217 142.75 107.503 127.865 94.8282 121.975L84.8254 117.325C63.0225 107.192 68.1481 74.8301 92.0154 71.9299L102.965 70.5994C116.84 68.9135 126.874 56.5226 125.638 42.6007L124.663 31.6135Z" stroke="white" stroke-opacity="0.2" stroke-width="2"/>
<path opacity="0.793103" d="M129.689 31.6478C128.819 7.62068 159.981 -2.50435 173.4 17.4449L178.425 24.9142C186.226 36.5112 201.822 39.8261 213.665 32.4048L221.293 27.6249C241.667 14.8585 266.016 36.7827 255.449 58.3791L251.493 66.465C245.35 79.0194 250.277 94.1831 262.626 100.729L270.58 104.945C291.822 116.206 285.01 148.255 261.024 149.902L252.043 150.519C238.099 151.477 227.43 163.325 227.936 177.293L228.261 186.289C229.13 210.316 197.969 220.441 184.549 200.492L179.525 193.023C171.724 181.426 156.128 178.111 144.284 185.532L136.656 190.312C116.283 203.078 91.9336 181.154 102.5 159.558L106.457 151.472C112.599 138.917 107.672 123.754 95.3236 117.207L87.3701 112.991C66.1273 101.73 72.9396 69.6813 96.926 68.0342L105.907 67.4176C119.851 66.4601 130.519 54.6114 130.014 40.6438L129.689 31.6478Z" stroke="white" stroke-opacity="0.2" stroke-width="2"/>
<path opacity="0.827586" d="M134.555 31.9889C134.945 7.94922 166.594 -0.531057 178.951 20.0932L182.535 26.0752C189.718 38.0646 205.119 42.1912 217.335 35.3999L223.43 32.0114C244.443 20.3287 267.612 43.4973 255.929 64.511L252.541 70.606C245.749 82.8217 249.876 98.2225 261.865 105.406L267.848 108.99C288.472 121.347 279.992 152.996 255.952 153.385L248.979 153.498C235.004 153.725 223.73 164.999 223.504 178.974L223.391 185.946C223.001 209.986 191.353 218.466 178.996 197.842L175.411 191.86C168.228 179.871 152.827 175.744 140.611 182.535L134.516 185.924C113.503 197.607 90.3342 174.438 102.017 153.424L105.405 147.329C112.197 135.114 108.07 119.713 96.0807 112.529L90.0987 108.945C69.4744 96.5881 77.9546 64.9393 101.994 64.5499L108.967 64.4369C122.942 64.2106 134.216 52.9364 134.442 38.9616L134.555 31.9889Z" stroke="white" stroke-opacity="0.2" stroke-width="2"/>
<path opacity="0.862069" d="M139.253 32.6227C140.9 8.63633 172.95 1.82407 184.21 23.0668L186.526 27.4361C193.073 39.785 208.236 44.712 220.791 38.5692L225.233 36.3958C246.829 25.829 268.753 50.1783 255.987 70.5518L253.361 74.7423C245.94 86.5858 249.255 102.181 260.852 109.983L264.955 112.743C284.904 126.162 274.779 157.324 250.752 156.455L245.81 156.276C231.843 155.771 219.994 166.439 219.036 180.383L218.698 185.317C217.051 209.303 185.001 216.115 173.741 194.873L171.424 190.503C164.878 178.154 149.714 173.227 137.16 179.37L132.718 181.544C111.122 192.11 89.1975 167.761 101.964 147.388L104.59 143.197C112.011 131.353 108.696 115.758 97.0992 107.957L92.9959 105.197C73.0466 91.777 83.1716 60.6154 107.199 61.4847L112.141 61.6635C126.108 62.1688 137.957 51.5001 138.914 37.5563L139.253 32.6227Z" stroke="white" stroke-opacity="0.2" stroke-width="2"/>
<path opacity="0.896552" d="M143.758 33.526C146.658 9.65872 179.02 4.53312 189.153 26.3361L190.383 28.9812C196.273 41.6558 211.159 47.3696 224.017 41.8924L226.701 40.7493C248.82 31.3272 269.44 56.7906 255.625 76.468L253.949 78.8552C245.918 90.2942 248.412 106.042 259.585 114.439L261.917 116.192C281.136 130.637 269.394 161.226 245.446 159.1L242.54 158.843C228.618 157.607 216.227 167.641 214.542 181.515L214.19 184.411C211.29 208.278 178.928 213.404 168.794 191.601L167.565 188.956C161.674 176.281 146.789 170.567 133.93 176.045L131.247 177.188C109.127 186.61 88.507 161.146 102.322 141.469L103.998 139.082C112.029 127.643 109.535 111.895 98.3623 103.498L96.0306 101.745C76.8109 87.3001 88.5529 56.7111 112.502 58.8366L115.407 59.0945C129.329 60.3301 141.72 50.2962 143.406 36.4216L143.758 33.526Z" stroke="white" stroke-opacity="0.2" stroke-width="2"/>
<path opacity="0.931035" d="M147.939 35.3702C152.084 11.6874 185.05 8.22253 194.029 30.526C199.248 43.4915 214.066 50.0889 227.194 45.2921C249.777 37.0406 269.26 63.8573 254.434 82.7848C245.815 93.7877 247.511 109.919 258.229 118.89C276.666 134.321 263.184 164.603 239.379 161.227C225.541 159.264 212.418 168.798 210.009 182.566C205.863 206.248 172.898 209.713 163.919 187.41C158.7 174.444 143.881 167.847 130.754 172.644C108.171 180.895 88.6877 154.078 103.514 135.151C112.132 124.148 110.437 108.017 99.7189 99.046C81.2816 83.6147 94.7638 53.3331 118.569 56.7091C132.407 58.6717 145.529 49.1375 147.939 35.3702Z" stroke="white" stroke-opacity="0.2" stroke-width="2"/>
<path opacity="0.965517" d="M152.339 35.2098C157.66 12.0263 190.032 10.3298 197.747 32.83C202.236 45.9208 216.303 53.088 229.532 49.0252C252.271 42.0422 269.925 69.2283 254.298 87.1606C245.205 97.5936 246.032 113.359 256.165 122.785C273.581 138.985 258.865 167.868 235.521 163.3C221.94 160.642 208.699 169.24 205.603 182.729C200.282 205.912 167.91 207.609 160.194 185.108C155.705 172.018 141.639 164.85 128.409 168.913C105.671 175.896 88.0163 148.71 103.644 130.778C112.736 120.345 111.91 104.579 101.777 95.1538C84.3605 78.9534 99.0769 50.0707 122.421 54.6387C136.002 57.2964 149.242 48.6981 152.339 35.2098Z" stroke="white" stroke-opacity="0.2" stroke-width="2"/>
<path d="M156.676 35.3039C163.079 12.8695 194.873 12.8695 201.275 35.3039C205.006 48.3763 218.436 56.1303 231.622 52.825C254.252 47.1525 270.149 74.6868 253.922 91.4487C244.466 101.216 244.466 116.724 253.922 126.491C270.149 143.253 254.252 170.787 231.622 165.115C218.436 161.809 205.006 169.563 201.275 182.636C194.873 205.07 163.079 205.07 156.676 182.636C152.946 169.563 139.515 161.809 126.329 165.115C103.699 170.787 87.802 143.253 104.03 126.491C113.485 116.724 113.485 101.216 104.03 91.4487C87.802 74.6868 103.699 47.1525 126.329 52.825C139.515 56.1303 152.946 48.3763 156.676 35.3039Z" stroke="white" stroke-opacity="0.2" stroke-width="2"/>
</svg>
