<svg width="20" height="20" viewBox="0 0 20 20" fill="none" xmlns="http://www.w3.org/2000/svg">
<path d="M6.55837 17.7333C5.90004 17.7333 5.27504 17.575 4.72504 17.2583C3.42504 16.5083 2.70837 14.9833 2.70837 12.975V7.03333C2.70837 5.01667 3.42504 3.5 4.72504 2.75C6.02504 2 7.70004 2.14167 9.45004 3.15L14.5917 6.11667C16.3334 7.125 17.3 8.50833 17.3 10.0083C17.3 11.5083 16.3417 12.8917 14.5917 13.9L9.45004 16.8667C8.44171 17.4417 7.45837 17.7333 6.55837 17.7333ZM6.55837 3.51667C6.10837 3.51667 5.70837 3.61667 5.35004 3.825C4.45004 4.34167 3.95837 5.48333 3.95837 7.03333V12.9667C3.95837 14.5167 4.45004 15.65 5.35004 16.175C6.25004 16.7 7.48337 16.55 8.82504 15.775L13.9667 12.8083C15.3084 12.0333 16.05 11.0417 16.05 10C16.05 8.95833 15.3084 7.96667 13.9667 7.19167L8.82504 4.225C8.00837 3.75833 7.24171 3.51667 6.55837 3.51667Z" fill="#292D32"/>
</svg>
