<svg width="19" height="18" viewBox="0 0 19 18" fill="none" xmlns="http://www.w3.org/2000/svg">
<path fill-rule="evenodd" clip-rule="evenodd" d="M12.0399 3C12.0399 2.68934 12.292 2.4375 12.603 2.4375H15.981C16.292 2.4375 16.544 2.68934 16.544 3V6.375C16.544 6.68566 16.292 6.9375 15.981 6.9375C15.6701 6.9375 15.418 6.68566 15.418 6.375V4.358L11.875 7.89775C11.6552 8.11742 11.2987 8.11742 11.0788 7.89775C10.859 7.67808 10.859 7.32192 11.0788 7.10225L14.6218 3.5625H12.603C12.292 3.5625 12.0399 3.31066 12.0399 3ZM8.87232 10.1023C9.09219 10.3219 9.09219 10.6781 8.87232 10.8977L5.32935 14.4375H7.34818C7.65913 14.4375 7.9112 14.6893 7.9112 15C7.9112 15.3107 7.65913 15.5625 7.34818 15.5625H3.97012C3.8208 15.5625 3.67759 15.5032 3.57201 15.3977C3.46642 15.2923 3.4071 15.1492 3.4071 15L3.4071 11.625C3.4071 11.3143 3.65917 11.0625 3.97012 11.0625C4.28106 11.0625 4.53313 11.3143 4.53313 11.625L4.53313 13.642L8.0761 10.1023C8.29597 9.88258 8.65245 9.88258 8.87232 10.1023Z" fill="#A1A1A1"/>
</svg>
