<svg width="48" height="48" viewBox="0 0 48 48" fill="none" xmlns="http://www.w3.org/2000/svg">
<path d="M12.2535 8.11188L43.3264 29.3283L35.6417 40.6883L4.56885 19.3048L12.2535 8.11188Z" fill="url(#paint0_linear_1_1724)"/>
<path d="M43.3265 29.3282C40.6535 33.1705 31.6324 31.667 23.1124 25.6529C14.4253 19.8059 9.74771 11.9541 12.2536 8.11176C14.9265 4.26942 23.9477 5.77295 32.4677 11.787C41.1547 17.467 45.8323 25.4858 43.3265 29.3282Z" fill="url(#paint1_linear_1_1724)"/>
<path d="M35.6418 40.5211C32.9689 44.3634 23.9477 42.8599 15.4277 36.8458C6.90775 30.8317 2.06306 23.147 4.73599 19.1376C7.40893 15.2952 16.4301 16.7988 24.9501 22.8129C33.47 28.827 38.1477 36.6787 35.6418 40.5211Z" fill="url(#paint2_linear_1_1724)"/>
<path d="M43.3264 29.3282L35.6417 40.6882C32.9688 44.5306 23.9476 42.86 15.4276 37.0129C13.7571 35.8435 12.2535 34.6741 10.75 33.3376C11.9194 33.1706 13.4229 32.5023 14.9265 30.8318C17.5994 27.9918 18.9359 27.3235 20.1053 27.4906C21.2747 27.4906 22.6111 28.66 24.7829 31.5C26.9547 34.34 29.9617 35.1753 31.7994 33.6718C31.9664 33.5047 32.1335 33.5047 32.3005 33.3376C33.8041 32.1682 34.3052 31.6671 37.1452 26.3212C37.8135 24.9847 40.1523 22.813 43.3264 23.8153C44.1617 25.9871 44.1617 27.8247 43.3264 29.3282Z" fill="#0E0F23"/>
<path fill-rule="evenodd" clip-rule="evenodd" d="M42.1571 28.66C39.8182 32.0012 31.6324 30.3306 23.7806 24.8177C15.7618 19.3047 11.0842 12.2883 13.423 8.94711C15.7618 5.60594 23.9477 7.27652 31.7994 12.7895C39.6512 18.3024 44.3288 25.3188 42.1571 28.66ZM34.8065 23.6483C33.6371 25.3188 29.6277 24.4835 25.6183 21.8106C21.7759 19.1377 19.4371 15.6294 20.6065 13.9589C21.7759 12.2883 25.7853 13.1236 29.7947 15.7965C33.6371 18.4694 35.9759 21.9777 34.8065 23.6483Z" fill="white"/>
<path d="M11.5855 11.9542C11.5855 11.7871 11.4184 11.62 11.2514 11.7871C11.0843 11.9542 10.9172 11.9542 10.9172 12.1212C11.0843 12.6224 11.2514 12.9565 11.2514 13.2906C11.2514 13.4577 11.4184 13.6247 11.5855 13.4577C11.7525 13.4577 11.9196 13.2906 11.7525 13.1236C11.7525 12.7894 11.7525 12.4553 11.5855 11.9542Z" fill="white"/>
<path d="M12.4206 14.6271C12.4206 14.46 12.2536 14.2929 12.0865 14.46C11.9194 14.6271 11.9194 14.6271 11.9194 14.7941C13.7571 18.9706 17.5994 23.4812 22.6112 26.8223C22.7782 26.9894 22.9453 26.8223 23.1123 26.8223C23.2794 26.6553 23.1123 26.4882 23.1123 26.3212C17.9335 22.98 14.2583 18.6365 12.4206 14.6271Z" fill="white"/>
<path d="M32.6347 30.9988C32.4676 30.9988 32.3005 30.9988 32.3005 31.1659C32.3005 31.333 32.3005 31.5 32.4676 31.5C32.9688 31.6671 33.637 31.8341 34.1382 32.0012C34.3052 32.0012 34.4723 32.0012 34.4723 31.8341C34.4723 31.6671 34.4723 31.5 34.3052 31.5C33.8041 31.333 33.1358 31.1659 32.6347 30.9988Z" fill="white"/>
<path d="M35.6417 31.667C35.4747 31.667 35.3076 31.8341 35.3076 32.0011C35.3076 32.1682 35.4747 32.3352 35.6417 32.3352C36.9782 32.5023 38.4817 32.6693 39.6511 32.5023C39.8182 32.5023 39.9853 32.3352 39.9853 32.1682C39.9853 32.0011 39.8182 31.8341 39.6511 31.8341C38.3147 32.0011 36.9782 31.8341 35.6417 31.667Z" fill="white"/>
<defs>
<linearGradient id="paint0_linear_1_1724" x1="18.3415" y1="5.0953" x2="24.5036" y2="26.2553" gradientUnits="userSpaceOnUse">
<stop stop-color="#03B8FF"/>
<stop offset="1" stop-color="#FA52A0"/>
</linearGradient>
<linearGradient id="paint1_linear_1_1724" x1="23.4161" y1="3.61722" x2="29.5784" y2="24.7773" gradientUnits="userSpaceOnUse">
<stop stop-color="#03B8FF"/>
<stop offset="1" stop-color="#FA52A0"/>
</linearGradient>
<linearGradient id="paint2_linear_1_1724" x1="13.2827" y1="6.56827" x2="19.445" y2="27.7284" gradientUnits="userSpaceOnUse">
<stop stop-color="#03B8FF"/>
<stop offset="1" stop-color="#FA52A0"/>
</linearGradient>
</defs>
</svg>
